<?xml version="1.0" encoding="UTF-8" standalone="no"?>
<!-- Created with Inkscape (http://www.inkscape.org/) -->

<svg
   xmlns:dc="http://purl.org/dc/elements/1.1/"
   xmlns:cc="http://creativecommons.org/ns#"
   xmlns:rdf="http://www.w3.org/1999/02/22-rdf-syntax-ns#"
   xmlns:svg="http://www.w3.org/2000/svg"
   xmlns="http://www.w3.org/2000/svg"
   xmlns:xlink="http://www.w3.org/1999/xlink"
   xmlns:sodipodi="http://sodipodi.sourceforge.net/DTD/sodipodi-0.dtd"
   xmlns:inkscape="http://www.inkscape.org/namespaces/inkscape"
   width="162.1244mm"
   height="132.70029mm"
   viewBox="0 0 162.1244 132.70029"
   version="1.1"
   id="svg10751"
   inkscape:version="0.92.2 (5c3e80d, 2017-08-06)"
   sodipodi:docname="Eels.svg">
  <title
     id="title11416">Eels</title>
  <defs
     id="defs10745">
    <linearGradient
       y2="138.39215"
       x2="-100.56017"
       y1="109.66699"
       x1="-100.56017"
       gradientTransform="matrix(1,0,0,1.6911801,-234.05814,-415.09251)"
       gradientUnits="userSpaceOnUse"
       id="linearGradient10579-4"
       xlink:href="#linearGradient9111"
       inkscape:collect="always" />
    <linearGradient
       inkscape:collect="always"
       id="linearGradient9111">
      <stop
         style="stop-color:#ffeeb1;stop-opacity:1"
         offset="0"
         id="stop9107" />
      <stop
         style="stop-color:#f9c710;stop-opacity:0"
         offset="1"
         id="stop9109" />
    </linearGradient>
    <clipPath
       clipPathUnits="userSpaceOnUse"
       id="clipPath14465">
      <path
         style="opacity:1;vector-effect:none;fill:#c83737;fill-opacity:1;stroke:none;stroke-width:0.26458329;stroke-linecap:round;stroke-linejoin:round;stroke-miterlimit:4;stroke-dasharray:none;stroke-dashoffset:0;stroke-opacity:1;marker:none"
         d="m -326.67411,-227.13342 c -0.19886,2.2e-4 -0.39756,0.005 -0.59584,0.0124 -0.0548,0.002 -0.10917,0.006 -0.1638,0.008 -0.13611,0.007 -0.272,0.0144 -0.40773,0.0243 -0.0744,0.005 -0.14859,0.0111 -0.22272,0.0176 -0.12761,0.0111 -0.25472,0.0241 -0.3819,0.0382 -0.0653,0.007 -0.13079,0.0137 -0.19585,0.0217 -0.15589,0.0192 -0.31152,0.0409 -0.46664,0.0646 -0.0851,0.013 -0.17,0.027 -0.25477,0.0413 -0.13187,0.0223 -0.26358,0.0453 -0.39481,0.0708 -0.0851,0.0165 -0.16955,0.0348 -0.25424,0.0527 -0.0965,0.0204 -0.1928,0.0414 -0.28887,0.0636 -0.098,0.0225 -0.19564,0.046 -0.293,0.0703 -0.088,0.022 -0.17547,0.0453 -0.26305,0.0687 -0.0911,0.0244 -0.18233,0.0485 -0.27284,0.0744 -0.10689,0.0306 -0.21312,0.0633 -0.31938,0.0961 -0.12078,0.0373 -0.24101,0.0757 -0.36068,0.11576 -0.11909,0.0398 -0.23841,0.0799 -0.35658,0.12247 -0.0915,0.033 -0.18203,0.0682 -0.27283,0.10284 -0.0848,0.0323 -0.1695,0.0645 -0.25374,0.0982 -0.0895,0.0359 -0.17838,0.0732 -0.26718,0.11059 -0.0941,0.0396 -0.18774,0.08 -0.28112,0.12144 -0.0715,0.0317 -0.14298,0.0634 -0.21394,0.0961 -0.12255,0.0565 -0.2441,0.11508 -0.36534,0.17467 -0.0482,0.0237 -0.0968,0.0466 -0.1447,0.0708 -0.16652,0.0839 -0.33223,0.17018 -0.49609,0.25993 0,2.7e-4 0,8e-4 -0.003,0.001 -0.20216,0.11083 -0.40129,0.2265 -0.5984,0.34572 -0.0665,0.0402 -0.13155,0.0824 -0.19741,0.1235 -0.12819,0.0801 -0.25601,0.16086 -0.3819,0.24443 -0.0784,0.052 -0.15568,0.10533 -0.23304,0.15865 -0.11055,0.0762 -0.22006,0.15366 -0.32867,0.23254 -0.0798,0.058 -0.15907,0.11638 -0.2377,0.1757 -0.11449,0.0864 -0.22736,0.1747 -0.33951,0.26407 -0.0637,0.0507 -0.12835,0.10028 -0.19122,0.15193 -0.17497,0.14374 -0.34782,0.2908 -0.51676,0.44183 -0.0148,0.0132 -0.0287,0.0271 -0.0434,0.0403 -0.15902,0.14321 -0.31475,0.2897 -0.46818,0.43925 -0.0403,0.0393 -0.0795,0.0796 -0.11938,0.11937 -0.11851,0.11794 -0.23543,0.23746 -0.35037,0.35915 -0.0561,0.0594 -0.11123,0.1196 -0.16639,0.17984 -0.1093,0.11925 -0.21715,0.24011 -0.32298,0.36277 -0.042,0.0487 -0.0842,0.0971 -0.12557,0.14624 -0.12126,0.14394 -0.23966,0.29034 -0.35605,0.43873 -0.0254,0.0323 -0.0514,0.0641 -0.0765,0.0966 -0.29012,0.3757 -0.56494,0.76473 -0.8227,1.16737 -0.0148,0.0233 -0.0286,0.0474 -0.0434,0.0708 -0.1067,0.16859 -0.21084,0.33904 -0.31162,0.51211 -0.034,0.0583 -0.0665,0.11746 -0.0997,0.17621 -0.0827,0.14618 -0.16348,0.29367 -0.24185,0.44287 -0.0339,0.0645 -0.0672,0.1293 -0.10025,0.19431 -0.0714,0.14042 -0.14026,0.28231 -0.20773,0.42529 -0.035,0.0742 -0.0705,0.14799 -0.1044,0.22273 -0.0659,0.14519 -0.12885,0.29207 -0.19069,0.43977 -0.0289,0.069 -0.0588,0.13728 -0.0868,0.2067 -0.0801,0.19915 -0.15726,0.40063 -0.22995,0.6041 -0.006,0.0167 -0.0127,0.0329 -0.0185,0.0496 0,0 0,5.3e-4 0,5.3e-4 h 6.06322 l 9.36996,5.3e-4 c 2.99122,4e-5 5.41623,2.425 5.4162,5.4162 1.9e-4,2.99128 -2.42493,5.4161 -5.4162,5.41621 l -9.36583,-5.3e-4 v 0 c -0.087,-0.14942 -0.17637,-0.29692 -0.26768,-0.44287 -0.0291,-0.0466 -0.0593,-0.0923 -0.0889,-0.13849 -0.0601,-0.0939 -0.12057,-0.18763 -0.18243,-0.28009 -0.0428,-0.064 -0.0871,-0.12684 -0.13073,-0.19017 -0.0542,-0.0786 -0.10835,-0.15715 -0.16383,-0.23461 -0.0407,-0.0569 -0.0821,-0.11321 -0.12351,-0.16949 -0.061,-0.0829 -0.12253,-0.16543 -0.185,-0.24702 -0.04,-0.0522 -0.0804,-0.1039 -0.12091,-0.15555 -0.0642,-0.0817 -0.1287,-0.16305 -0.19431,-0.24339 -0.0451,-0.0553 -0.0906,-0.11022 -0.13642,-0.16485 -0.0574,-0.0684 -0.11573,-0.13573 -0.17415,-0.20309 -0.0546,-0.0629 -0.10888,-0.1261 -0.16433,-0.1881 -0.0554,-0.0619 -0.11174,-0.12252 -0.16796,-0.18345 -0.0557,-0.0604 -0.11083,-0.12138 -0.16743,-0.18087 -0.0573,-0.0602 -0.11599,-0.119 -0.17415,-0.17828 -0.0598,-0.061 -0.11917,-0.12247 -0.17984,-0.18242 -0.0692,-0.0683 -0.13999,-0.13505 -0.21031,-0.20206 -0.0434,-0.0414 -0.0859,-0.0837 -0.1297,-0.12453 0,-8e-4 -0.003,-0.002 -0.003,-0.003 -0.0652,-0.0607 -0.13184,-0.11973 -0.19793,-0.17932 -0.055,-0.0495 -0.10925,-0.0996 -0.16484,-0.14831 -0.0719,-0.0631 -0.14512,-0.12429 -0.21809,-0.18604 -0.0542,-0.0458 -0.10801,-0.0924 -0.16277,-0.13745 -0.0746,-0.0615 -0.15016,-0.12179 -0.22583,-0.18191 -0.05,-0.0397 -0.1,-0.0793 -0.15039,-0.11833 -0.0793,-0.0615 -0.15941,-0.12195 -0.23976,-0.1819 -0.0527,-0.0393 -0.10546,-0.0786 -0.15865,-0.11731 -0.0851,-0.0619 -0.17107,-0.1227 -0.25736,-0.18293 -0.0364,-0.0254 -0.073,-0.0504 -0.10953,-0.0755 -0.1016,-0.0697 -0.20336,-0.13884 -0.30644,-0.20619 -0.0238,-0.0156 -0.0479,-0.0306 -0.0718,-0.046 -0.11401,-0.0736 -0.22839,-0.14633 -0.34417,-0.21704 -0.003,-0.001 -0.004,-0.002 -0.006,-0.004 -0.50732,-0.30957 -1.03196,-0.59045 -1.57046,-0.84284 -0.0308,-0.0144 -0.0611,-0.0297 -0.092,-0.0439 -0.13578,-0.0626 -0.27273,-0.12302 -0.41029,-0.1819 -0.004,-0.002 -0.007,-0.003 -0.0109,-0.005 -0.12808,-0.0547 -0.25701,-0.10721 -0.38655,-0.15864 -0.0214,-0.008 -0.0427,-0.0169 -0.0641,-0.0253 -0.12464,-0.0489 -0.24974,-0.0963 -0.37568,-0.14211 -0.0254,-0.009 -0.051,-0.0183 -0.0765,-0.0274 -0.1339,-0.048 -0.26829,-0.0945 -0.40359,-0.13901 -0.003,-5.3e-4 -0.003,-10e-4 -0.005,-0.002 -1.60359,-0.52673 -3.30055,-0.8091 -5.03793,-0.81235 -8.97369,3e-5 -16.2482,7.27442 -16.24812,16.2481 3e-5,6.86954 4.26538,12.73904 10.29034,15.11588 -0.34634,0.49444 -0.66577,1.00896 -0.95653,1.5415 -0.0969,0.17752 -0.19071,0.35703 -0.28111,0.53847 -0.18085,0.36288 -0.34841,0.7334 -0.50229,1.11105 -0.077,0.18882 -0.15071,0.37925 -0.22066,0.57154 -0.13994,0.38457 -0.26564,0.77608 -0.37674,1.17357 -0.11107,0.39749 -0.20741,0.80108 -0.28835,1.21026 -0.0809,0.40918 -0.14634,0.8237 -0.19584,1.24334 -0.0743,0.62945 -0.11271,1.27027 -0.11266,1.91978 0,0.56084 0.0282,1.11466 0.0837,1.66088 3e-5,1.7e-4 -2e-5,2.6e-4 0,5.2e-4 0.0555,0.54604 0.1383,1.08414 0.24649,1.61282 5e-5,1.7e-4 -3e-5,2.7e-4 0,5.3e-4 0.0541,0.26426 0.11464,0.52607 0.1814,0.78549 3e-5,1.6e-4 -5e-5,2.6e-4 0,5.2e-4 0.13353,0.51899 0.2922,1.02793 0.47437,1.52549 8e-5,1.6e-4 -5e-5,2.7e-4 0,5.3e-4 0.0911,0.2487 0.18822,0.49459 0.29096,0.73742 6e-5,1.5e-4 -8e-5,2.7e-4 0,5.3e-4 0.30827,0.7288 0.66837,1.43027 1.07537,2.10013 8e-5,1.3e-4 -7e-5,2.7e-4 0,5.3e-4 0.13563,0.22321 0.27681,0.4429 0.42273,0.65888 0.29197,0.4322 0.6042,0.84985 0.93533,1.25108 0.16557,0.20062 0.33573,0.39675 0.51056,0.58911 0.16675,0.18346 0.33827,0.36283 0.51316,0.53847 0.008,0.008 0.0164,0.0174 0.0249,0.0258 0.009,0.009 0.0177,0.0167 0.0265,0.0253 0.17555,0.17477 0.3546,0.3465 0.53795,0.51314 1.1e-4,9e-5 0,-8e-5 0,0 0.19228,0.17475 0.3886,0.34509 0.5891,0.51057 0.40127,0.33112 0.81888,0.64335 1.25111,0.93534 0.21608,0.146 0.43553,0.28701 0.65886,0.42271 1.4e-4,8e-5 0,-7e-5 0,0 0.22323,0.13562 0.44998,0.2662 0.68009,0.3912 10e-5,7e-5 0,-8e-5 0,0 0.46032,0.25004 0.93371,0.4787 1.41954,0.68419 1.6e-4,6e-5 0,-6e-5 0,0 0.24284,0.10271 0.48871,0.19987 0.73742,0.29094 1.6e-4,5e-5 0,-6e-5 0,0 0.24871,0.0911 0.50022,0.1762 0.75446,0.25528 1.6e-4,5e-5 0,-5e-5 0,0 0.25424,0.0791 0.51107,0.15236 0.77049,0.21911 1.6e-4,4e-5 0,-4e-5 0,0 0.25943,0.0667 0.52123,0.1273 0.7855,0.18138 1.6e-4,4e-5 0,-3e-5 0,0 0.0471,0.01 0.0954,0.0161 0.14264,0.0253 0.72826,0.14226 1.47338,0.23762 2.23295,0.27906 0.0209,0.001 0.0415,0.004 0.0625,0.005 1.6e-4,1e-5 0,-1e-5 0,0 0.27678,0.014 0.55536,0.0212 0.8356,0.0212 1.9e-4,0 0,0 0,0 0.19368,-2.2e-4 0.3872,-0.005 0.58034,-0.0119 0.0668,-0.002 0.1333,-0.007 0.19997,-0.01 0.12872,-0.006 0.25713,-0.0139 0.3855,-0.0233 0.075,-0.005 0.15002,-0.0111 0.22479,-0.0176 0.12031,-0.0105 0.24027,-0.0231 0.36021,-0.0362 0.0772,-0.008 0.15456,-0.0163 0.23151,-0.0258 0.14274,-0.0177 0.28522,-0.0379 0.42735,-0.0594 0.10541,-0.0159 0.2104,-0.0332 0.31523,-0.0512 0.11472,-0.0197 0.22942,-0.0394 0.34364,-0.0615 0.10019,-0.0194 0.19962,-0.0408 0.29921,-0.062 0.0864,-0.0184 0.1728,-0.037 0.2589,-0.0568 0.0937,-0.0216 0.18698,-0.044 0.28009,-0.0672 0.0923,-0.023 0.18409,-0.0472 0.27596,-0.0718 0.097,-0.026 0.19404,-0.0519 0.2904,-0.0796 0.0839,-0.0241 0.16717,-0.05 0.25064,-0.0754 0.0895,-0.0273 0.17934,-0.0533 0.26821,-0.0822 0.0318,-0.0103 0.0633,-0.022 0.0951,-0.0326 0.14042,-0.0465 0.28094,-0.0938 0.42011,-0.14417 0.07,-0.0254 0.13917,-0.0528 0.20878,-0.0791 0.10824,-0.0408 0.21609,-0.0824 0.32351,-0.12557 0.0759,-0.0306 0.15142,-0.0619 0.22685,-0.0935 0.0999,-0.0419 0.19952,-0.0847 0.29869,-0.12867 0.0774,-0.0343 0.15467,-0.0689 0.23151,-0.10439 0.1008,-0.0466 0.20082,-0.095 0.30075,-0.14366 0.0691,-0.0337 0.13864,-0.0666 0.20722,-0.10129 0.16219,-0.0819 0.32353,-0.16575 0.48318,-0.25321 0.004,-0.002 0.007,-0.005 0.0114,-0.007 0.003,-10e-4 0.004,-0.002 0.006,-0.003 0.19317,-0.10617 0.38351,-0.21688 0.57205,-0.33072 0.0815,-0.0492 0.16129,-0.10085 0.24186,-0.15141 0.11298,-0.071 0.22574,-0.14232 0.33692,-0.21601 0.0825,-0.0547 0.16401,-0.11079 0.24545,-0.16692 0.11266,-0.0777 0.22421,-0.15672 0.33489,-0.23719 0.077,-0.056 0.15396,-0.11217 0.22994,-0.1695 0.10719,-0.0809 0.21262,-0.16402 0.31782,-0.24753 0.0735,-0.0583 0.14775,-0.11562 0.22014,-0.17518 0.17242,-0.14183 0.34242,-0.2862 0.509,-0.43512 0,-5.3e-4 0,-0.001 0.003,-0.002 0.17161,-0.15346 0.33972,-0.31151 0.50487,-0.47232 0.044,-0.0429 0.0867,-0.0869 0.13023,-0.13023 0.12176,-0.12127 0.24167,-0.24424 0.35968,-0.36948 0.0465,-0.0494 0.0925,-0.0993 0.13848,-0.14934 0.11298,-0.12298 0.224,-0.24806 0.33332,-0.37466 0.0437,-0.0507 0.0876,-0.10121 0.13073,-0.15245 0.11684,-0.13877 0.2313,-0.27979 0.34364,-0.42271 0.0304,-0.0387 0.0614,-0.0768 0.0915,-0.11575 0.14198,-0.18401 0.28064,-0.37065 0.41497,-0.56121 0.13862,-0.19664 0.27287,-0.39706 0.40307,-0.60048 0.0156,-0.0242 0.0301,-0.0491 0.0455,-0.0734 0.1047,-0.16549 0.20643,-0.33301 0.30541,-0.50281 0.0379,-0.0649 0.0746,-0.13039 0.11163,-0.19586 0.0784,-0.13888 0.15494,-0.27902 0.22944,-0.42064 0.0371,-0.0705 0.0734,-0.14131 0.10954,-0.21239 0.0677,-0.13348 0.13317,-0.26832 0.19741,-0.40411 0.038,-0.0803 0.0764,-0.16032 0.11319,-0.24133 0.062,-0.13682 0.12088,-0.2754 0.1793,-0.41445 0.0323,-0.0769 0.066,-0.15301 0.0972,-0.23047 0.0789,-0.19618 0.15417,-0.39443 0.22582,-0.5948 0.006,-0.0181 0.0143,-0.0356 0.0206,-0.0537 5e-5,-1.5e-4 -5e-5,-2.7e-4 0,-5.3e-4 h -6.06319 l -9.36998,-5.3e-4 c -2.99122,-5e-5 -5.41624,-2.42501 -5.41621,-5.41621 -1.9e-4,-2.99128 2.42496,-5.41609 5.41621,-5.4162 l 9.36585,5.3e-4 v 0 c 0.0885,0.15203 0.17939,0.30217 0.27233,0.45061 0.0169,0.0269 0.0347,0.0529 0.0517,0.0796 0.0727,0.11454 0.14642,0.22821 0.22169,0.34055 0.0363,0.0542 0.0737,0.10755 0.1106,0.16123 0.059,0.0858 0.11829,0.17133 0.1788,0.2558 0.0392,0.0548 0.079,0.10907 0.11885,0.1633 0.0641,0.0872 0.12862,0.17373 0.19431,0.25941 0.0373,0.0487 0.0748,0.097 0.11266,0.14522 0.0614,0.0782 0.12335,0.15561 0.18603,0.23254 0.0515,0.0632 0.10316,0.12626 0.15555,0.18862 0.0547,0.0651 0.1102,0.1296 0.16587,0.19379 0.0515,0.0593 0.10279,0.11873 0.15504,0.17725 0.0704,0.0788 0.14211,0.15625 0.21395,0.23357 0.0403,0.0434 0.0801,0.0873 0.12091,0.13023 0.081,0.0853 0.16378,0.16878 0.24649,0.25218 0.0377,0.038 0.0746,0.0771 0.11266,0.11472 0.11316,0.11187 0.22793,0.2219 0.34417,0.33021 0.0655,0.0611 0.13247,0.1204 0.19894,0.18035 0.0587,0.053 0.11676,0.1066 0.17624,0.15865 0.0703,0.0615 0.14213,0.12111 0.21341,0.18138 0.0493,0.0417 0.0981,0.084 0.14779,0.12506 0.077,0.0635 0.155,0.12553 0.23305,0.18759 0.0545,0.0433 0.10885,0.0866 0.16383,0.12919 0.0741,0.0573 0.14875,0.11398 0.22376,0.17001 0.056,0.0418 0.11247,0.083 0.16899,0.12403 0.0777,0.0565 0.15592,0.11234 0.2346,0.16743 0.0518,0.0363 0.1038,0.0723 0.15605,0.108 0.0877,0.0599 0.17577,0.1191 0.26459,0.17725 0.0362,0.0237 0.0727,0.0469 0.10903,0.0703 0.10472,0.0674 0.20953,0.13454 0.31576,0.19947 0.009,0.006 0.0191,0.0109 0.0284,0.0165 0.12555,0.0764 0.25175,0.15132 0.37931,0.22428 0.27067,0.1548 0.54605,0.30174 0.82529,0.44079 0.13298,0.0662 0.26723,0.13017 0.40203,0.19276 0.008,0.004 0.0161,0.008 0.0243,0.0119 0.12142,0.0561 0.24406,0.10964 0.3669,0.16278 0.028,0.0121 0.0557,0.0248 0.0837,0.0367 0.11668,0.0497 0.23402,0.0977 0.35192,0.14469 0.0303,0.0121 0.0605,0.0243 0.0909,0.0362 0.13145,0.0515 0.2635,0.10127 0.39638,0.14934 0.005,0.002 0.0103,0.004 0.0156,0.006 0.14089,0.0508 0.28236,0.0998 0.42476,0.14676 0.0116,0.004 0.0236,0.007 0.0352,0.0109 0.14044,0.0459 0.28136,0.0906 0.42323,0.1328 0.003,8e-4 0.005,0.001 0.008,0.002 0.75063,0.22265 1.5203,0.39167 2.30373,0.50437 0.15703,0.0226 0.31475,0.0429 0.47284,0.061 0.59766,0.0681 1.20197,0.10532 1.81178,0.10646 8.97369,-4e-5 16.2482,-7.27443 16.24809,-16.24811 -2e-5,-6.86971 -4.26564,-12.73915 -10.29083,-15.11587 0,0 0,0 0,0 1.84713,-2.63704 2.93438,-5.84548 2.9342,-9.30951 0,-0.84127 -0.0638,-1.66798 -0.18709,-2.47478 -0.0411,-0.26895 -0.089,-0.53553 -0.14314,-0.79996 -0.32467,-1.58656 -0.8805,-3.08918 -1.63089,-4.47052 -0.12507,-0.23023 -0.25548,-0.45673 -0.39118,-0.68006 -0.27141,-0.44667 -0.56404,-0.87951 -0.87593,-1.29657 -0.0333,-0.0445 -0.0691,-0.0871 -0.10285,-0.13126 -0.12414,-0.1625 -0.24924,-0.32506 -0.3793,-0.48265 -0.16555,-0.20062 -0.33571,-0.39675 -0.51054,-0.58912 -0.17484,-0.19236 -0.35471,-0.38053 -0.53848,-0.5643 -0.1837,-0.18369 -0.37153,-0.3632 -0.56381,-0.53795 0,0 0,0 0,0 -0.76938,-0.69925 -1.60586,-1.32588 -2.49906,-1.86862 0,0 0,0 0,0 -0.12841,-0.078 -0.26049,-0.15079 -0.39119,-0.22531 -0.0965,-0.055 -0.19169,-0.11333 -0.28938,-0.1664 -0.23024,-0.12507 -0.46344,-0.24455 -0.70022,-0.35863 -0.23677,-0.1141 -0.47688,-0.22279 -0.71985,-0.32557 -0.24281,-0.10268 -0.48879,-0.19937 -0.73742,-0.29042 0,0 0,-5.3e-4 0,-5.3e-4 -0.24871,-0.0911 -0.50025,-0.1762 -0.75448,-0.25528 0,0 0,0 0,0 -0.76304,-0.23731 -1.5503,-0.41985 -2.35696,-0.54312 0,0 0,0 0,0 -0.26877,-0.0411 -0.53941,-0.0756 -0.81235,-0.10335 0,0 0,0 0,0 -0.27295,-0.0277 -0.54801,-0.0485 -0.82476,-0.0625 0,0 0,0 0,0 -0.27676,-0.014 -0.55536,-0.0212 -0.83561,-0.0212 z m -23.37326,24.42331 h 9.35963 c 1.03402,1.7744 2.38321,3.31513 3.961,4.56252 0.0296,0.0234 0.0591,0.0471 0.0889,0.0703 0.15809,0.12322 0.31808,0.24394 0.48059,0.36121 0.019,0.0138 0.0386,0.0271 0.0579,0.0408 0.51739,0.36998 1.05603,0.70911 1.61385,1.01648 0.0233,0.0128 0.046,0.0261 0.0693,0.0388 0.17135,0.0933 0.34457,0.18308 0.51933,0.27027 0.0448,0.0224 0.0898,0.0442 0.13488,0.0661 0.37619,0.18335 0.75716,0.35784 1.14774,0.51211 -0.83408,1.1927 -1.51122,2.50063 -2.00401,3.89434 4.16047,7.20328 13.08926,10.10069 20.68658,6.71328 -0.019,0.0775 -0.0428,0.15282 -0.0651,0.22893 -0.0164,0.0559 -0.0304,0.1128 -0.0486,0.16795 -0.0259,0.0789 -0.0568,0.15576 -0.0863,0.23306 -0.0225,0.0593 -0.0436,0.11946 -0.0682,0.17776 -0.0291,0.0689 -0.0618,0.13571 -0.0936,0.20309 -0.0302,0.0641 -0.0598,0.1285 -0.0925,0.19121 -0.0319,0.0612 -0.0666,0.12057 -0.10075,0.18035 -0.0372,0.0652 -0.0744,0.1303 -0.11422,0.19378 -0.0371,0.0593 -0.0764,0.11697 -0.11576,0.17467 -0.0408,0.0597 -0.082,0.11926 -0.12504,0.17725 -0.0409,0.0551 -0.0837,0.10876 -0.1266,0.16226 -0.0476,0.0592 -0.0958,0.11802 -0.14573,0.17519 -0.0435,0.0498 -0.088,0.0986 -0.13333,0.14676 -0.053,0.0563 -0.10747,0.11086 -0.16279,0.16484 -0.0465,0.0455 -0.0934,0.0906 -0.14158,0.13436 -0.0567,0.0515 -0.11528,0.10127 -0.17415,0.15038 -0.0509,0.0424 -0.1016,0.085 -0.15402,0.12557 -0.0616,0.0477 -0.12491,0.0929 -0.18859,0.13798 -0.053,0.0375 -0.10578,0.0755 -0.16021,0.11111 -0.068,0.0445 -0.13816,0.0861 -0.20825,0.12764 -0.0518,0.0307 -0.10268,0.0625 -0.15555,0.0915 -0.0836,0.0458 -0.16957,0.0872 -0.2558,0.12867 -0.0433,0.0208 -0.0853,0.0439 -0.12919,0.0636 -0.0974,0.0437 -0.19778,0.0824 -0.29816,0.12041 -0.0366,0.0138 -0.0721,0.0298 -0.10906,0.0429 -0.1364,0.0482 -0.2753,0.0908 -0.41651,0.12816 -0.0412,0.0109 -0.0839,0.0185 -0.12557,0.0284 -0.10041,0.024 -0.20082,0.0478 -0.30335,0.0661 -0.0591,0.0106 -0.11954,0.0167 -0.17931,0.0253 -0.25505,0.0369 -0.5145,0.0605 -0.7798,0.0605 h -9.36014 c -0.46561,-0.79896 -0.99454,-1.55038 -1.58028,-2.24947 -0.14369,-0.17152 -0.29046,-0.3398 -0.44079,-0.50488 -0.003,-0.003 -0.005,-0.005 -0.007,-0.008 -0.005,-0.005 -0.01,-0.01 -0.0146,-0.015 -0.45307,-0.49562 -0.93422,-0.96259 -1.4428,-1.39681 -0.15581,-0.13304 -0.3148,-0.26213 -0.47543,-0.38913 -0.0296,-0.0234 -0.0591,-0.0471 -0.0889,-0.0703 -0.15708,-0.12241 -0.31607,-0.24208 -0.4775,-0.35863 -0.0235,-0.0169 -0.0473,-0.0333 -0.0708,-0.0501 -0.5144,-0.36727 -1.04971,-0.70381 -1.60403,-1.00924 -0.0233,-0.0128 -0.046,-0.0261 -0.0693,-0.0388 -0.17335,-0.0944 -0.34869,-0.18522 -0.52554,-0.27336 -0.0395,-0.0197 -0.0792,-0.039 -0.11885,-0.0584 -0.17843,-0.0871 -0.35774,-0.17258 -0.53951,-0.25321 -0.20481,-0.0909 -0.40973,-0.18108 -0.61857,-0.26355 0.83426,-1.19286 1.51164,-2.50041 2.00454,-3.89434 -4.1605,-7.20329 -13.08928,-10.1007 -20.68661,-6.71328 0.018,-0.073 0.0406,-0.14421 0.0615,-0.21601 0.0177,-0.061 0.0334,-0.12285 0.0532,-0.18294 0.0251,-0.0767 0.0547,-0.15122 0.0832,-0.22634 0.0233,-0.0609 0.045,-0.12256 0.0703,-0.18242 0.0297,-0.0703 0.0631,-0.13847 0.0956,-0.20722 0.0291,-0.0616 0.0575,-0.12369 0.0889,-0.18397 0.0341,-0.0655 0.0709,-0.12936 0.10748,-0.19327 0.0349,-0.0608 0.0698,-0.12153 0.10697,-0.18087 0.0384,-0.0613 0.0791,-0.1212 0.11988,-0.18086 0.0399,-0.0584 0.0804,-0.11641 0.12248,-0.17312 0.042,-0.0566 0.0851,-0.11203 0.12919,-0.16691 0.0468,-0.0582 0.0945,-0.11539 0.14367,-0.17157 0.0425,-0.0486 0.086,-0.0966 0.13023,-0.14366 0.0545,-0.0581 0.11038,-0.11492 0.16743,-0.17053 0.0456,-0.0445 0.0918,-0.0884 0.13901,-0.13126 0.0583,-0.053 0.11824,-0.10408 0.1788,-0.15451 0.0495,-0.0412 0.0989,-0.0825 0.14986,-0.12196 0.0604,-0.0468 0.12261,-0.0912 0.185,-0.13539 0.0543,-0.0385 0.10851,-0.0777 0.16433,-0.11421 0.0695,-0.0455 0.14121,-0.0879 0.21291,-0.13022 0.0502,-0.0297 0.0996,-0.0603 0.15089,-0.0884 0.0758,-0.0415 0.1536,-0.0794 0.23152,-0.1173 0.0531,-0.0258 0.10511,-0.0534 0.15914,-0.0775 0.26234,-0.11721 0.53565,-0.21468 0.81804,-0.28939 0.0346,-0.009 0.0705,-0.0153 0.10544,-0.0238 0.10895,-0.0265 0.21825,-0.0515 0.32969,-0.0713 0.0495,-0.009 0.0999,-0.0143 0.14986,-0.0217 0.26239,-0.0391 0.52975,-0.063 0.80304,-0.0631 z m 30.72939,0.002 c 0.27234,0 0.54287,0.007 0.81185,0.0207 -0.269,-0.0132 -0.53957,-0.0207 -0.81185,-0.0207 z m 1.14258,0.0444 c 0.15063,0.0106 0.30168,0.0194 0.45111,0.0341 -0.14946,-0.0146 -0.30048,-0.0236 -0.45111,-0.0341 z m -2.66756,0.0289 c -0.3371,0.0322 -0.67283,0.0746 -1.00666,0.12764 0.33383,-0.053 0.66956,-0.0955 1.00666,-0.12764 z m 3.62977,0.0667 c 0.0847,0.011 0.16999,0.0202 0.25424,0.0326 -0.0843,-0.0123 -0.16952,-0.0216 -0.25424,-0.0326 z m 0.83251,0.12971 c 0.01,0.002 0.0201,0.003 0.03,0.005 0.036,0.007 0.0726,0.0112 0.1085,0.0181 0,0 0,0 0,0 0.0151,0.003 0.0299,0.007 0.045,0.01 -0.061,-0.0119 -0.12274,-0.0219 -0.18397,-0.0331 z m 0.771,0.16072 c 0.0358,0.008 0.0723,0.0146 0.108,0.0233 0.0151,0.004 0.0295,0.008 0.0445,0.0119 -0.0506,-0.0123 -0.10168,-0.0233 -0.15245,-0.0351 z m 0.79324,0.20618 c 0.0143,0.004 0.0287,0.007 0.0429,0.0114 0.007,0.002 0.014,0.005 0.0212,0.007 -0.0214,-0.006 -0.0428,-0.012 -0.0641,-0.0181 z m 0.75655,0.23771 c 0.005,0.002 0.0103,0.004 0.0156,0.006 -0.005,-0.002 -0.0103,-0.004 -0.0156,-0.006 z m -13.04573,1.12293 c -0.19603,0.10739 -0.38854,0.21993 -0.57928,0.33487 0.19079,-0.11499 0.38317,-0.22745 0.57928,-0.33487 z m -0.70228,0.40928 c -0.0751,0.0462 -0.14798,0.0953 -0.2222,0.14263 -1.8e-4,-3e-5 0,2e-5 0,0 0,-1.7e-4 -0.003,-2.7e-4 -0.004,-5.3e-4 0.0751,-0.0479 0.15041,-0.0954 0.22635,-0.14211 z m 8.49045,0.24598 c 1.52585,-4e-5 2.76289,1.23676 2.76312,2.76262 0,0.0148 0,0.0296 -0.003,0.0444 -8e-5,-0.002 0,-0.004 0,-0.006 a 1.3815311,1.381535 0 0 0 -0.0103,-0.10853 c 0,-0.01 -0.003,-0.02 -0.004,-0.03 a 1.3815311,1.381535 0 0 0 -0.0175,-0.0909 c -0.003,-0.0146 -0.006,-0.029 -0.01,-0.0434 a 1.3815311,1.381535 0 0 0 -0.077,-0.22169 c -0.005,-0.0104 -0.009,-0.0207 -0.014,-0.031 a 1.3815311,1.381535 0 0 0 -0.11576,-0.19844 c -0.006,-0.008 -0.0116,-0.0166 -0.0175,-0.0248 a 1.3815311,1.381535 0 0 0 -0.15193,-0.17519 c -0.006,-0.006 -0.0119,-0.0114 -0.018,-0.017 a 1.3815311,1.381535 0 0 0 -0.18605,-0.14728 c -0.005,-0.003 -0.0101,-0.006 -0.0151,-0.009 a 1.3815311,1.381535 0 0 0 -0.21498,-0.11265 c -0.006,-0.002 -0.0114,-0.004 -0.0172,-0.006 a 1.3815311,1.381535 0 0 0 -0.23615,-0.0713 1.3815311,1.381535 0 0 0 -0.003,0 c -0.0324,-0.007 -0.0655,-0.0108 -0.0987,-0.015 -0.0122,-0.002 -0.0241,-0.004 -0.0362,-0.006 a 1.3815311,1.381535 0 0 0 -0.13692,-0.007 1.3815311,1.381535 0 0 0 -0.12507,0.007 c -0.018,0.002 -0.0355,0.004 -0.0532,0.007 a 1.3815311,1.381535 0 0 0 -0.0785,0.0119 c -0.0249,0.005 -0.0494,0.0105 -0.0739,0.0165 a 1.3815311,1.381535 0 0 0 -0.0558,0.0145 c -0.0246,0.007 -0.0487,0.0157 -0.0729,0.0243 a 1.3815311,1.381535 0 0 0 -0.0605,0.0217 c -0.0111,0.005 -0.0217,0.01 -0.0325,0.0145 a 1.3815311,1.381535 0 0 0 -0.21138,0.11472 c -0.007,0.005 -0.014,0.0105 -0.0212,0.0155 a 1.3815311,1.381535 0 0 0 -0.18966,0.15607 c -0.003,0.002 -0.004,0.005 -0.006,0.007 a 1.3815311,1.381535 0 0 0 -0.16277,0.19689 c -0.003,0.002 -0.003,0.005 -0.005,0.008 a 1.3815311,1.381535 0 0 0 -0.11988,0.22065 c -0.0193,0.0449 -0.0371,0.0908 -0.0517,0.13798 -0.0135,0.0437 -0.0249,0.0883 -0.0341,0.13384 -0.009,0.0438 -0.0156,0.0881 -0.0201,0.13333 a 1.3815311,1.381535 0 0 0 -0.007,0.14108 1.3815311,1.381535 0 0 0 0.006,0.1235 c 0.003,0.0225 0.005,0.0445 0.008,0.0667 a 1.3815311,1.381535 0 0 0 0.009,0.0605 c 0.005,0.0285 0.0116,0.0564 0.0185,0.0842 a 1.3815311,1.381535 0 0 0 0.0135,0.0517 c 0.007,0.0248 0.0159,0.0487 0.0243,0.0729 a 1.3815311,1.381535 0 0 0 0.0217,0.0599 c 0.005,0.0117 0.0106,0.0226 0.0156,0.0341 a 1.3815311,1.381535 0 0 0 0.11266,0.20877 c 0.006,0.009 0.013,0.0174 0.019,0.0264 a 1.3815311,1.381535 0 0 0 0.15192,0.18397 c 0.004,0.004 0.009,0.008 0.013,0.0119 a 1.3815311,1.381535 0 0 0 0.18759,0.15554 1.3815311,1.381535 0 0 0 0.003,0.001 c 0.007,0.005 0.0148,0.009 0.0222,0.0134 a 1.3815311,1.381535 0 0 0 0.20931,0.11369 c 0.045,0.0194 0.0911,0.037 0.13848,0.0517 0.0438,0.0135 0.0883,0.0249 0.13386,0.0341 0.0446,0.009 0.0903,0.0161 0.13642,0.0207 0.0454,0.005 0.0913,0.007 0.13798,0.007 0.003,0 0.006,-0.001 0.009,-0.001 a 1.3815311,1.381535 0 0 0 0.22532,-0.0196 c 0.006,-10e-4 0.0106,-0.003 0.0161,-0.004 a 1.3815311,1.381535 0 0 0 0.19224,-0.0512 c 0.0111,-0.004 0.0225,-0.007 0.0336,-0.0109 a 1.3815311,1.381535 0 0 0 0.18346,-0.0842 c 0.0114,-0.006 0.0227,-0.0125 0.0341,-0.0191 a 1.3815311,1.381535 0 0 0 0.17053,-0.11575 1.3815311,1.381535 0 0 0 0.003,-0.002 c 0.003,-0.002 0.004,-0.004 0.006,-0.005 a 1.3815311,1.381535 0 0 0 0.15349,-0.14779 c 0.003,-0.004 0.007,-0.007 0.0103,-0.0109 a 1.3815311,1.381535 0 0 0 0.12714,-0.17054 c 0.005,-0.008 0.0103,-0.0168 0.0156,-0.0253 a 1.3815311,1.381535 0 0 0 0.0982,-0.19275 1.3815311,1.381535 0 0 0 0,-0.002 c 0,-0.002 0,-0.003 0.003,-0.005 a 1.3815311,1.381535 0 0 0 0.0687,-0.22325 c -0.19717,1.35684 -1.35933,2.36402 -2.73058,2.36575 -1.52607,4e-5 -2.7632,-1.23709 -2.76315,-2.76314 2.4e-4,-1.52586 1.2373,-2.76266 2.76315,-2.76262 z m -11.19881,1.84433 c -0.0127,0.0121 -0.0257,0.024 -0.0382,0.0362 0.0127,-0.0122 0.0254,-0.0241 0.0382,-0.0362 z m -10.35595,4.26279 c 0.13989,0.006 0.28062,0.0325 0.41701,0.0822 0.54573,0.19864 0.90895,0.71736 0.90901,1.29811 l -2.57763,0.69091 c -0.29064,-0.50305 -0.2355,-1.13419 0.13798,-1.57923 0.28004,-0.33352 0.69392,-0.50887 1.11363,-0.49196 z m 13.75937,2.07119 c 0.29064,0.50305 0.23548,1.13419 -0.13798,1.57923 -0.28006,0.33353 -0.69392,0.50888 -1.11363,0.49197 -0.13991,-0.006 -0.28062,-0.0325 -0.41704,-0.0822 -0.5457,-0.19864 -0.90892,-0.71736 -0.90898,-1.29811 z m -22.80637,2.65255 c 1.52606,-4e-5 2.76318,1.23709 2.76315,2.76314 -2.7e-4,1.52586 -1.2373,2.76267 -2.76315,2.76263 -1.52585,4e-5 -2.76289,-1.23677 -2.76315,-2.76263 0,-0.0148 0,-0.0296 0.003,-0.0444 8e-5,0.002 0,0.004 0,0.006 a 1.3815311,1.381535 0 0 0 0.0103,0.10749 c 0.003,0.0107 0.003,0.0214 0.004,0.032 a 1.3815311,1.381535 0 0 0 0.0169,0.0884 c 0.003,0.0151 0.007,0.0301 0.0103,0.045 a 1.3815311,1.381535 0 0 0 0.077,0.22118 c 0.005,0.0104 0.009,0.0207 0.014,0.031 a 1.3815311,1.381535 0 0 0 0.11628,0.19947 c 0.005,0.007 0.0101,0.0149 0.0156,0.0222 a 1.3815311,1.381535 0 0 0 0.15089,0.17467 c 0.008,0.008 0.0161,0.0147 0.0243,0.0222 a 1.3815311,1.381535 0 0 0 0.17983,0.14263 c 0.007,0.005 0.014,0.008 0.0212,0.0129 a 1.3815311,1.381535 0 0 0 0.21138,0.11059 c 0.005,0.002 0.0103,0.004 0.0156,0.006 a 1.3815311,1.381535 0 0 0 0.37412,0.093 c 0,4e-5 0,-3e-5 0,0 a 1.3815311,1.381535 0 0 0 0.13694,0.007 1.3815311,1.381535 0 0 0 0.11782,-0.006 c 0.0241,-0.002 0.048,-0.005 0.0718,-0.009 a 1.3815311,1.381535 0 0 0 0.0672,-0.01 c 0.0233,-0.004 0.0459,-0.01 0.0687,-0.0155 a 1.3815311,1.381535 0 0 0 0.061,-0.0155 c 0.0285,-0.008 0.0561,-0.0179 0.0837,-0.0279 a 1.3815311,1.381535 0 0 0 0.0429,-0.016 c 0.0151,-0.006 0.0292,-0.0131 0.0439,-0.0196 a 1.3815311,1.381535 0 0 0 0.20723,-0.11266 c 0.007,-0.004 0.013,-0.009 0.0196,-0.0139 a 1.3815311,1.381535 0 0 0 0.19068,-0.1571 c 0.003,-0.002 0.004,-0.004 0.006,-0.006 a 1.3815311,1.381535 0 0 0 0.16433,-0.19998 c 0,-0.002 0.003,-0.004 0.003,-0.006 a 1.3815311,1.381535 0 0 0 0.12454,-0.22893 c 0.0354,-0.0837 0.0627,-0.17185 0.0812,-0.26303 a 1.3815311,1.381535 0 0 0 0.008,-0.0512 c 0.005,-0.0273 0.01,-0.0543 0.0124,-0.0822 a 1.3815311,1.381535 0 0 0 0.007,-0.14107 1.3815311,1.381535 0 0 0 -0.006,-0.12351 c -0.003,-0.0226 -0.005,-0.0449 -0.008,-0.0672 a 1.3815311,1.381535 0 0 0 -0.009,-0.061 c -0.005,-0.028 -0.0119,-0.0553 -0.0185,-0.0827 a 1.3815311,1.381535 0 0 0 -0.0135,-0.0522 c -0.007,-0.0254 -0.0161,-0.0502 -0.0249,-0.0749 a 1.3815311,1.381535 0 0 0 -0.0206,-0.0563 c -0.005,-0.0127 -0.0111,-0.0247 -0.0164,-0.0372 a 1.3815311,1.381535 0 0 0 -0.11316,-0.20877 c -0.005,-0.008 -0.0111,-0.0154 -0.0164,-0.0233 a 1.3815311,1.381535 0 0 0 -0.15348,-0.18552 c -0.005,-0.004 -0.009,-0.009 -0.0135,-0.0129 a 1.3815311,1.381535 0 0 0 -0.19068,-0.15709 c -0.005,-0.003 -0.01,-0.006 -0.0146,-0.009 a 1.3815311,1.381535 0 0 0 -0.21498,-0.1173 c -0.12745,-0.055 -0.26487,-0.0916 -0.40875,-0.10594 a 1.3815311,1.381535 0 0 0 -0.13798,-0.007 1.3815311,1.381535 0 0 0 -0.23461,0.0202 c -0.006,0.001 -0.0119,0.003 -0.018,0.004 a 1.3815311,1.381535 0 0 0 -0.19069,0.0506 c -0.0114,0.004 -0.0233,0.007 -0.0346,0.0114 a 1.3815311,1.381535 0 0 0 -0.18243,0.0832 c -0.0122,0.007 -0.0238,0.0137 -0.0357,0.0207 a 1.3815311,1.381535 0 0 0 -0.16896,0.11524 c -0.003,0.002 -0.006,0.004 -0.008,0.007 a 1.3815311,1.381535 0 0 0 -0.15246,0.14624 c -0.004,0.004 -0.008,0.008 -0.0119,0.0124 a 1.3815311,1.381535 0 0 0 -0.12867,0.1726 c -0.004,0.007 -0.008,0.0135 -0.0119,0.0202 a 1.3815311,1.381535 0 0 0 -0.0997,0.19586 c 0,0.002 -0.003,0.005 -0.003,0.007 a 1.3815311,1.381535 0 0 0 -0.0687,0.22324 c 0.19717,-1.35683 1.35932,-2.36402 2.73058,-2.36575 z m 8.71265,5.62912 c 0.003,1.9e-4 0.003,2.6e-4 0.004,5.3e-4 -0.0779,0.0497 -0.15626,0.0989 -0.23513,0.14727 0.078,-0.0479 0.15391,-0.0987 0.23101,-0.14779 z m -0.33901,0.21342 c -0.19275,0.11627 -0.38732,0.22994 -0.5855,0.33848 0.1981,-0.1085 0.39283,-0.22227 0.5855,-0.33848 z m -3.02358,1.42162 c -0.27845,0.0975 -0.55869,0.18867 -0.8418,0.27079 -0.32432,0.0941 -0.6513,0.17798 -0.98084,0.25166 0.32954,-0.0737 0.65652,-0.1576 0.98084,-0.25166 0.28297,-0.0821 0.56348,-0.17337 0.8418,-0.27079 z m -9.90947,0.26045 c 0.0151,0.004 0.0303,0.009 0.0455,0.0129 -0.0151,-0.004 -0.0304,-0.008 -0.0455,-0.0129 z m 0.72036,0.19327 c 0.029,0.007 0.0583,0.0133 0.0873,0.0202 -0.0214,-0.005 -0.0433,-0.009 -0.0646,-0.0139 -0.008,-0.002 -0.0151,-0.004 -0.0228,-0.006 z m 0.72916,0.15968 c 0.0586,0.0114 0.11793,0.0208 0.17675,0.0315 -0.0588,-0.0108 -0.11817,-0.0201 -0.17675,-0.0315 z m 0.73898,0.12609 c 0.10486,0.0154 0.21077,0.027 0.31626,0.0403 -0.10544,-0.0134 -0.21148,-0.0249 -0.31626,-0.0403 z m 0.77825,0.0956 c 0.12449,0.0121 0.2504,0.0197 0.37568,0.0289 -0.1253,-0.009 -0.25119,-0.0167 -0.37568,-0.0289 z m 0.79528,0.0589 c 0.26446,0.0128 0.53028,0.0202 0.79791,0.0202 -0.2676,0 -0.53353,-0.007 -0.79791,-0.0202 z"
         id="path14467"
         inkscape:connector-curvature="0" />
    </clipPath>
  </defs>
  <sodipodi:namedview
     id="base"
     pagecolor="#ffffff"
     bordercolor="#666666"
     borderopacity="1.0"
     inkscape:pageopacity="0.0"
     inkscape:pageshadow="2"
     inkscape:zoom="0.7"
     inkscape:cx="132.77421"
     inkscape:cy="319.86911"
     inkscape:document-units="mm"
     inkscape:current-layer="layer1"
     showgrid="false"
     fit-margin-top="10"
     fit-margin-bottom="10"
     fit-margin-right="10"
     fit-margin-left="10"
     inkscape:window-width="1920"
     inkscape:window-height="1057"
     inkscape:window-x="-8"
     inkscape:window-y="-8"
     inkscape:window-maximized="1" />
  <metadata
     id="metadata10748">
    <rdf:RDF>
      <cc:Work
         rdf:about="">
        <dc:format>image/svg+xml</dc:format>
        <dc:type
           rdf:resource="http://purl.org/dc/dcmitype/StillImage" />
        <dc:title>Eels</dc:title>
        <dc:date>2017-11-19</dc:date>
        <dc:creator>
          <cc:Agent>
            <dc:title>m1981</dc:title>
          </cc:Agent>
        </dc:creator>
        <dc:rights>
          <cc:Agent>
            <dc:title>Public domain</dc:title>
          </cc:Agent>
        </dc:rights>
        <dc:publisher>
          <cc:Agent>
            <dc:title>Inkscape</dc:title>
          </cc:Agent>
        </dc:publisher>
        <dc:subject>
          <rdf:Bag>
            <rdf:li>eels</rdf:li>
            <rdf:li>underwater</rdf:li>
            <rdf:li>stylized</rdf:li>
            <rdf:li>bubbles</rdf:li>
            <rdf:li>flat</rdf:li>
          </rdf:Bag>
        </dc:subject>
      </cc:Work>
    </rdf:RDF>
  </metadata>
  <g
     inkscape:label="Calque 1"
     inkscape:groupmode="layer"
     id="layer1"
     transform="translate(-26.283037,-31.078423)">
    <g
       transform="translate(441.2787,295.48219)"
       id="g14664">
      <g
         id="g9415-5-1"
         transform="translate(-514.5089,5.9839111)">
        <g
           id="g9139-7-0-7"
           transform="rotate(180,125.80902,-161.21543)">
          <path
             style="opacity:1;vector-effect:none;fill:#c83737;fill-opacity:1;stroke:none;stroke-width:0.99999982;stroke-linecap:round;stroke-linejoin:round;stroke-miterlimit:4;stroke-dasharray:none;stroke-dashoffset:0;stroke-opacity:1;marker:none"
             d="m 1020.6562,-820.14453 c -10.2888,0.0113 -20.4098,2.60795 -29.43354,7.55078 -13.24974,7.25767 -23.35829,19.1436 -28.39454,33.38672 l 58.33008,0.004 c 11.3054,1.8e-4 20.4708,9.16538 20.4707,20.4707 7e-4,11.30562 -9.1651,20.47029 -20.4707,20.4707 l -35.39843,-0.002 h -0.002 c -10.97791,-18.85708 -31.13725,-30.47285 -52.95703,-30.51367 -33.91634,1.1e-4 -61.41049,27.49385 -61.41016,61.41015 1.2e-4,33.91635 27.49578,61.4105 61.41211,61.41016 10.28882,-0.0113 20.40983,-2.60795 29.4336,-7.55078 v 0.002 c 13.24975,-7.25764 23.35829,-19.14361 28.39453,-33.38672 -15.72569,-27.22681 -49.47586,-38.17787 -78.19141,-25.37109 2.1955,-8.93922 10.26042,-15.57194 19.87696,-15.57227 h 35.38476 c 7.04868,12.10687 17.88589,21.22134 30.51367,26.21094 5.3703,-7.67449 12.4664,-14.08373 20.8106,-18.6543 v 0.002 c 9.0238,-4.94283 19.1448,-7.53945 29.4336,-7.55078 7.9521,-8e-5 15.543,1.5281 22.5176,4.27929 6.9821,-9.96641 11.0919,-22.09281 11.0918,-35.18555 -2e-4,-33.91631 -27.4958,-61.41048 -61.4122,-61.41015 z m -53.66206,125.42383 c 0.52877,0.0213 1.06061,0.12284 1.57617,0.31054 2.06256,0.75077 3.43539,2.7113 3.43555,4.90625 l -9.74219,2.61133 c -1.09849,-1.90132 -0.89007,-4.28673 0.52149,-5.96875 1.05844,-1.26057 2.62266,-1.92328 4.20898,-1.85937 z m -34.19336,17.85351 c 5.76778,-1.6e-4 10.44353,4.67559 10.44336,10.44336 -9.1e-4,5.76701 -4.67634,10.44157 -10.44336,10.44141 -5.76702,1.6e-4 -10.44245,-4.6744 -10.44336,-10.44141 0.002,-0.056 0.005,-0.112 0.008,-0.16797 0.12273,2.79125 2.42091,4.99131 5.21485,4.99219 2.88312,-4.6e-4 5.22023,-2.33758 5.2207,-5.2207 6.1e-4,-2.88389 -2.33682,-5.2222 -5.2207,-5.22266 -2.45929,10e-4 -4.58418,1.7188 -5.10156,4.12305 0.74262,-5.1313 5.1375,-8.94075 10.32226,-8.94727 z"
             transform="matrix(-0.26458333,0,0,-0.26458333,333.83188,-306.30994)"
             id="path9131-9-2-6"
             inkscape:connector-curvature="0"
             sodipodi:nodetypes="cscccccccccccccccccccccccccccccccccccacc" />
          <path
             style="opacity:0.3;vector-effect:none;fill:#000000;fill-opacity:1;stroke:none;stroke-width:0.99999982;stroke-linecap:round;stroke-linejoin:round;stroke-miterlimit:4;stroke-dasharray:none;stroke-dashoffset:0;stroke-opacity:1;marker:none"
             d="m 1020.6562,-820.14453 c -25.99864,0.0299 -49.16143,16.42777 -57.82808,40.93945 h 22.91602 c 7.30678,-12.6529 20.80296,-20.45272 35.41406,-20.4668 22.61,-5.2e-4 40.9398,18.32752 40.9414,40.9375 3e-4,12.34579 -5.4711,23.40763 -14.1133,30.91407 0.1578,-0.001 0.3149,-0.008 0.4727,-0.008 7.9527,-8e-5 15.5445,1.52767 22.5195,4.27929 6.9813,-9.96676 11.0906,-22.09316 11.0899,-35.18555 -3e-4,-33.91574 -27.4944,-61.40985 -61.4102,-61.41015 z m -81.00776,51.76953 c 10.71937,7.33251 18.85335,17.86925 23.18945,30.11133 6.05805,17.10369 19.16649,30.25313 35.36914,36.65234 4.60327,-6.58192 10.48347,-12.22241 17.32417,-16.58203 -12.3799,-1.73405 -23.41796,-9.06539 -29.77143,-20.07031 h -0.002 c -9.81854,-16.86558 -26.98265,-27.93137 -46.10937,-30.11133 z"
             transform="matrix(-0.26458333,0,0,-0.26458333,333.83188,-306.30994)"
             id="path9133-7-8-4"
             inkscape:connector-curvature="0"
             sodipodi:nodetypes="ccccccccccccsccccc" />
          <ellipse
             style="opacity:0.3;vector-effect:none;fill:#000000;fill-opacity:1;stroke:none;stroke-width:0.26458329;stroke-linecap:round;stroke-linejoin:round;stroke-miterlimit:4;stroke-dasharray:none;stroke-dashoffset:0;stroke-opacity:1;marker:none"
             id="ellipse9135-8-5-9"
             cx="88.409691"
             cy="-129.8804"
             rx="1.3815311"
             ry="1.3815351" />
          <path
             inkscape:connector-curvature="0"
             style="opacity:0.3;vector-effect:none;fill:#000000;fill-opacity:1;stroke:none;stroke-width:0.26458329;stroke-linecap:round;stroke-linejoin:round;stroke-miterlimit:4;stroke-dasharray:none;stroke-dashoffset:0;stroke-opacity:1;marker:none"
             d="m 97.343928,-121.27942 a 16.248249,16.248249 0 0 1 -4.92373,3.40083 c -0.531204,2.20198 -2.406381,3.87995 -4.70979,4.11396 a 10.832166,10.832166 0 0 0 4.734078,-1.42317 10.832166,10.832166 0 0 0 4.899442,-6.09162 z"
             id="path9137-7-9-3" />
        </g>
        <g
           transform="translate(108.16308,-73.291585)"
           id="g9363-3-2">
          <path
             sodipodi:nodetypes="cscccccccccccccccccccccccccccccccccccacc"
             inkscape:connector-curvature="0"
             id="path9355-4-6"
             transform="matrix(-0.26458333,0,0,-0.26458333,333.83188,-306.30994)"
             d="m 1020.6562,-820.14453 c -10.2888,0.0113 -20.4098,2.60795 -29.43354,7.55078 -13.24974,7.25767 -23.35829,19.1436 -28.39454,33.38672 l 58.33008,0.004 c 11.3054,1.8e-4 20.4708,9.16538 20.4707,20.4707 7e-4,11.30562 -9.1651,20.47029 -20.4707,20.4707 l -35.39843,-0.002 h -0.002 c -10.97791,-18.85708 -31.13725,-30.47285 -52.95703,-30.51367 -33.91634,1.1e-4 -61.41049,27.49385 -61.41016,61.41015 1.2e-4,33.91635 27.49578,61.4105 61.41211,61.41016 10.28882,-0.0113 20.40983,-2.60795 29.4336,-7.55078 v 0.002 c 13.24975,-7.25764 23.35829,-19.14361 28.39453,-33.38672 -15.72569,-27.22681 -49.47586,-38.17787 -78.19141,-25.37109 2.1955,-8.93922 10.26042,-15.57194 19.87696,-15.57227 h 35.38476 c 7.04868,12.10687 17.88589,21.22134 30.51367,26.21094 5.3703,-7.67449 12.4664,-14.08373 20.8106,-18.6543 v 0.002 c 9.0238,-4.94283 19.1448,-7.53945 29.4336,-7.55078 7.9521,-8e-5 15.543,1.5281 22.5176,4.27929 6.9821,-9.96641 11.0919,-22.09281 11.0918,-35.18555 -2e-4,-33.91631 -27.4958,-61.41048 -61.4122,-61.41015 z m -53.66206,125.42383 c 0.52877,0.0213 1.06061,0.12284 1.57617,0.31054 2.06256,0.75077 3.43539,2.7113 3.43555,4.90625 l -9.74219,2.61133 c -1.09849,-1.90132 -0.89007,-4.28673 0.52149,-5.96875 1.05844,-1.26057 2.62266,-1.92328 4.20898,-1.85937 z m -34.19336,17.85351 c 5.76778,-1.6e-4 10.44353,4.67559 10.44336,10.44336 -9.1e-4,5.76701 -4.67634,10.44157 -10.44336,10.44141 -5.76702,1.6e-4 -10.44245,-4.6744 -10.44336,-10.44141 0.002,-0.056 0.005,-0.112 0.008,-0.16797 0.12273,2.79125 2.42091,4.99131 5.21485,4.99219 2.88312,-4.6e-4 5.22023,-2.33758 5.2207,-5.2207 6.1e-4,-2.88389 -2.33682,-5.2222 -5.2207,-5.22266 -2.45929,10e-4 -4.58418,1.7188 -5.10156,4.12305 0.74262,-5.1313 5.1375,-8.94075 10.32226,-8.94727 z"
             style="opacity:1;vector-effect:none;fill:#00a466;fill-opacity:1;stroke:none;stroke-width:0.99999982;stroke-linecap:round;stroke-linejoin:round;stroke-miterlimit:4;stroke-dasharray:none;stroke-dashoffset:0;stroke-opacity:1;marker:none" />
          <path
             sodipodi:nodetypes="ccccccccccccsccccc"
             inkscape:connector-curvature="0"
             id="path9357-8-7"
             transform="matrix(-0.26458333,0,0,-0.26458333,333.83188,-306.30994)"
             d="m 1020.6562,-820.14453 c -25.99864,0.0299 -49.16143,16.42777 -57.82808,40.93945 h 22.91602 c 7.30678,-12.6529 20.80296,-20.45272 35.41406,-20.4668 22.61,-5.2e-4 40.9398,18.32752 40.9414,40.9375 3e-4,12.34579 -5.4711,23.40763 -14.1133,30.91407 0.1578,-0.001 0.3149,-0.008 0.4727,-0.008 7.9527,-8e-5 15.5445,1.52767 22.5195,4.27929 6.9813,-9.96676 11.0906,-22.09316 11.0899,-35.18555 -3e-4,-33.91574 -27.4944,-61.40985 -61.4102,-61.41015 z m -81.00776,51.76953 c 10.71937,7.33251 18.85335,17.86925 23.18945,30.11133 6.05805,17.10369 19.16649,30.25313 35.36914,36.65234 4.60327,-6.58192 10.48347,-12.22241 17.32417,-16.58203 -12.3799,-1.73405 -23.41796,-9.06539 -29.77143,-20.07031 h -0.002 c -9.81854,-16.86558 -26.98265,-27.93137 -46.10937,-30.11133 z"
             style="opacity:0.3;vector-effect:none;fill:#000000;fill-opacity:1;stroke:none;stroke-width:0.99999982;stroke-linecap:round;stroke-linejoin:round;stroke-miterlimit:4;stroke-dasharray:none;stroke-dashoffset:0;stroke-opacity:1;marker:none" />
          <ellipse
             ry="1.3815351"
             rx="1.3815311"
             cy="-129.8804"
             cx="88.409691"
             id="ellipse9359-8-4"
             style="opacity:0.3;vector-effect:none;fill:#000000;fill-opacity:1;stroke:none;stroke-width:0.26458329;stroke-linecap:round;stroke-linejoin:round;stroke-miterlimit:4;stroke-dasharray:none;stroke-dashoffset:0;stroke-opacity:1;marker:none" />
          <path
             id="path9361-0-9"
             d="m 97.343928,-121.27942 a 16.248249,16.248249 0 0 1 -4.92373,3.40083 c -0.531204,2.20198 -2.406381,3.87995 -4.70979,4.11396 a 10.832166,10.832166 0 0 0 4.734078,-1.42317 10.832166,10.832166 0 0 0 4.899442,-6.09162 z"
             style="opacity:0.3;vector-effect:none;fill:#000000;fill-opacity:1;stroke:none;stroke-width:0.26458329;stroke-linecap:round;stroke-linejoin:round;stroke-miterlimit:4;stroke-dasharray:none;stroke-dashoffset:0;stroke-opacity:1;marker:none"
             inkscape:connector-curvature="0" />
        </g>
      </g>
      <path
         inkscape:connector-curvature="0"
         id="path9289"
         d="m -338.29116,-143.31705 c 1.55948,-0.101 2.97393,-0.28735 4.40197,-0.45392 2.53875,-0.29616 2.90147,-1.27502 8.11425,-0.959 5.21278,0.316 9.8378,-0.38313 8.87879,-1.29828 -0.95901,-0.91516 0.91069,-1.25285 4.4279,-1.10084 3.51724,0.15205 1.85021,-1.54554 -0.21557,-2.11752 -3.23584,-0.85814 -10.26518,-0.73258 -13.77879,-0.91845 -3.54552,-0.18754 -4.51737,-1.32464 -7.86194,-1.49486 -1.46324,-0.0744 -2.76414,-0.0475 -3.97707,0.031 -1.55946,0.10099 -2.97392,0.28735 -4.40197,0.45393 -2.53875,0.29614 -2.90149,1.275 -8.11425,0.959 -5.2128,-0.31602 -9.83779,0.38311 -8.8788,1.29827 0.95901,0.91515 -0.9107,1.25285 -4.42793,1.10083 -3.51722,-0.15205 -1.85018,1.54554 0.21558,2.11754 3.23582,0.85814 10.26516,0.73257 13.7788,0.91843 3.54549,0.18754 4.51736,1.32466 7.86193,1.49488 1.46325,0.0744 2.76415,0.0475 3.97708,-0.031 z"
         style="opacity:0.1;fill:#000000;stroke:none;stroke-width:0.26458332px;stroke-linecap:butt;stroke-linejoin:miter;stroke-opacity:1" />
      <path
         style="opacity:0.1;fill:#000000;stroke:none;stroke-width:0.26458332px;stroke-linecap:butt;stroke-linejoin:miter;stroke-opacity:1"
         d="m -330.93504,-141.77834 c 1.55948,-0.101 2.97393,-0.28735 4.40197,-0.45392 2.53875,-0.29616 2.90147,-1.27502 8.11425,-0.959 5.21278,0.316 9.8378,-0.38313 8.87879,-1.29828 -0.95901,-0.91516 0.91069,-1.25285 4.4279,-1.10084 3.51724,0.15205 1.85021,-1.54554 -0.21557,-2.11752 -3.23584,-0.85814 -10.26518,-0.73258 -13.77879,-0.91845 -3.54552,-0.18754 -4.51737,-1.32464 -7.86194,-1.49486 -1.46324,-0.0744 -2.76414,-0.0475 -3.97707,0.031 -1.55946,0.10099 -2.97392,0.28735 -4.40197,0.45393 -2.53875,0.29614 -2.90149,1.275 -8.11425,0.959 -5.2128,-0.31602 -9.83779,0.38311 -8.8788,1.29827 0.95901,0.91515 -0.9107,1.25285 -4.42793,1.10083 -3.51722,-0.15205 -1.85018,1.54554 0.21558,2.11754 3.23582,0.85814 10.26516,0.73257 13.7788,0.91843 3.54549,0.18754 4.51736,1.32466 7.86193,1.49488 1.46325,0.0744 2.76415,0.0475 3.97708,-0.031 z"
         id="path9313"
         inkscape:connector-curvature="0" />
      <g
         style="opacity:0.1;fill:#000000;fill-opacity:1"
         transform="translate(0.0233956,0.51447836)"
         id="g10633">
        <circle
           r="5.4160829"
           cy="-207.83943"
           cx="-387.05441"
           id="circle9558-9"
           style="opacity:1;vector-effect:none;fill:#000000;fill-opacity:1;stroke:none;stroke-width:0.26458326;stroke-linecap:round;stroke-linejoin:round;stroke-miterlimit:4;stroke-dasharray:none;stroke-dashoffset:0;stroke-opacity:1;marker:none" />
        <ellipse
           cy="-195.20462"
           cx="-380.85031"
           id="circle9558-5-7"
           style="opacity:1;vector-effect:none;fill:#000000;fill-opacity:1;stroke:none;stroke-width:0.26458326;stroke-linecap:round;stroke-linejoin:round;stroke-miterlimit:4;stroke-dasharray:none;stroke-dashoffset:0;stroke-opacity:1;marker:none"
           rx="2.708041"
           ry="2.7080421" />
        <ellipse
           ry="1.3540211"
           rx="1.3540198"
           style="opacity:1;vector-effect:none;fill:#000000;fill-opacity:1;stroke:none;stroke-width:0.26458326;stroke-linecap:round;stroke-linejoin:round;stroke-miterlimit:4;stroke-dasharray:none;stroke-dashoffset:0;stroke-opacity:1;marker:none"
           id="ellipse9617-0"
           cx="-385.09946"
           cy="-188.54671" />
        <circle
           style="opacity:1;vector-effect:none;fill:#000000;fill-opacity:1;stroke:none;stroke-width:0.26458326;stroke-linecap:round;stroke-linejoin:round;stroke-miterlimit:4;stroke-dasharray:none;stroke-dashoffset:0;stroke-opacity:1;marker:none"
           id="circle9649-0"
           cx="-290.20172"
           cy="-174.26877"
           r="5.4160829" />
        <ellipse
           cy="-184.05713"
           cx="-294.58994"
           id="circle9558-5-6-8"
           style="opacity:1;vector-effect:none;fill:#000000;fill-opacity:1;stroke:none;stroke-width:0.26458326;stroke-linecap:round;stroke-linejoin:round;stroke-miterlimit:4;stroke-dasharray:none;stroke-dashoffset:0;stroke-opacity:1;marker:none"
           rx="2.708041"
           ry="2.7080421" />
        <ellipse
           ry="1.3540211"
           rx="1.3540198"
           style="opacity:1;vector-effect:none;fill:#000000;fill-opacity:1;stroke:none;stroke-width:0.26458326;stroke-linecap:round;stroke-linejoin:round;stroke-miterlimit:4;stroke-dasharray:none;stroke-dashoffset:0;stroke-opacity:1;marker:none"
           id="ellipse9617-3-5"
           cx="-292.48178"
           cy="-198.61043" />
        <ellipse
           ry="1.3540211"
           rx="1.3540198"
           style="opacity:1;vector-effect:none;fill:#000000;fill-opacity:1;stroke:none;stroke-width:0.26458326;stroke-linecap:round;stroke-linejoin:round;stroke-miterlimit:4;stroke-dasharray:none;stroke-dashoffset:0;stroke-opacity:1;marker:none"
           id="ellipse9617-6-4"
           cx="-285.9288"
           cy="-187.72231" />
        <ellipse
           ry="1.3540211"
           rx="1.3540198"
           style="opacity:1;vector-effect:none;fill:#000000;fill-opacity:1;stroke:none;stroke-width:0.26458326;stroke-linecap:round;stroke-linejoin:round;stroke-miterlimit:4;stroke-dasharray:none;stroke-dashoffset:0;stroke-opacity:1;marker:none"
           id="ellipse9617-8-12"
           cx="-351.24908"
           cy="-145.08369" />
        <ellipse
           ry="1.3540211"
           rx="1.3540198"
           style="opacity:1;vector-effect:none;fill:#000000;fill-opacity:1;stroke:none;stroke-width:0.26458326;stroke-linecap:round;stroke-linejoin:round;stroke-miterlimit:4;stroke-dasharray:none;stroke-dashoffset:0;stroke-opacity:1;marker:none"
           id="ellipse9617-4-1"
           cx="-378.62656"
           cy="-166.00456" />
        <ellipse
           cy="-156.59442"
           cx="-376.5954"
           id="circle9558-5-9-9"
           style="opacity:1;vector-effect:none;fill:#000000;fill-opacity:1;stroke:none;stroke-width:0.26458326;stroke-linecap:round;stroke-linejoin:round;stroke-miterlimit:4;stroke-dasharray:none;stroke-dashoffset:0;stroke-opacity:1;marker:none"
           rx="2.708041"
           ry="2.7080421" />
        <ellipse
           cy="-162.22078"
           cx="-375.87173"
           id="ellipse9812-7"
           style="opacity:1;vector-effect:none;fill:#000000;fill-opacity:1;stroke:none;stroke-width:0.26458326;stroke-linecap:round;stroke-linejoin:round;stroke-miterlimit:4;stroke-dasharray:none;stroke-dashoffset:0;stroke-opacity:1;marker:none"
           rx="1.3540198"
           ry="1.3540211" />
        <ellipse
           ry="1.3540211"
           rx="1.3540198"
           style="opacity:1;vector-effect:none;fill:#000000;fill-opacity:1;stroke:none;stroke-width:0.26458326;stroke-linecap:round;stroke-linejoin:round;stroke-miterlimit:4;stroke-dasharray:none;stroke-dashoffset:0;stroke-opacity:1;marker:none"
           id="ellipse9617-8-3-8"
           cx="-335.04498"
           cy="-151.86163" />
        <ellipse
           ry="1.3540211"
           rx="1.3540198"
           style="opacity:1;vector-effect:none;fill:#000000;fill-opacity:1;stroke:none;stroke-width:0.26458326;stroke-linecap:round;stroke-linejoin:round;stroke-miterlimit:4;stroke-dasharray:none;stroke-dashoffset:0;stroke-opacity:1;marker:none"
           id="ellipse9617-8-30-9"
           cx="-337.10297"
           cy="-156.35175" />
        <ellipse
           cy="-147.06944"
           cx="-291.26727"
           id="ellipse9886-4-2"
           style="opacity:1;vector-effect:none;fill:#000000;fill-opacity:1;stroke:none;stroke-width:0.26458326;stroke-linecap:round;stroke-linejoin:round;stroke-miterlimit:4;stroke-dasharray:none;stroke-dashoffset:0;stroke-opacity:1;marker:none"
           rx="2.708041"
           ry="2.7080421" />
        <ellipse
           ry="1.3540211"
           rx="1.3540198"
           style="opacity:1;vector-effect:none;fill:#000000;fill-opacity:1;stroke:none;stroke-width:0.26458326;stroke-linecap:round;stroke-linejoin:round;stroke-miterlimit:4;stroke-dasharray:none;stroke-dashoffset:0;stroke-opacity:1;marker:none"
           id="ellipse9617-6-0-0"
           cx="-288.48917"
           cy="-155.00694" />
        <ellipse
           ry="1.3540211"
           rx="1.3540198"
           style="opacity:1;vector-effect:none;fill:#000000;fill-opacity:1;stroke:none;stroke-width:0.26458326;stroke-linecap:round;stroke-linejoin:round;stroke-miterlimit:4;stroke-dasharray:none;stroke-dashoffset:0;stroke-opacity:1;marker:none"
           id="ellipse9617-6-0-6-5"
           cx="-289.21063"
           cy="-215.17252" />
        <ellipse
           ry="1.3540211"
           rx="1.3540198"
           style="opacity:1;vector-effect:none;fill:#000000;fill-opacity:1;stroke:none;stroke-width:0.26458326;stroke-linecap:round;stroke-linejoin:round;stroke-miterlimit:4;stroke-dasharray:none;stroke-dashoffset:0;stroke-opacity:1;marker:none"
           id="ellipse9617-6-0-1-7"
           cx="-290.89206"
           cy="-220.33609" />
        <circle
           style="opacity:1;vector-effect:none;fill:#000000;fill-opacity:1;stroke:none;stroke-width:0.26458326;stroke-linecap:round;stroke-linejoin:round;stroke-miterlimit:4;stroke-dasharray:none;stroke-dashoffset:0;stroke-opacity:1;marker:none"
           id="circle9649-2-8"
           cx="-323.07129"
           cy="-241.10292"
           r="5.4160829" />
        <ellipse
           ry="1.3540211"
           rx="1.3540198"
           style="opacity:1;vector-effect:none;fill:#000000;fill-opacity:1;stroke:none;stroke-width:0.26458326;stroke-linecap:round;stroke-linejoin:round;stroke-miterlimit:4;stroke-dasharray:none;stroke-dashoffset:0;stroke-opacity:1;marker:none"
           id="ellipse9617-6-0-1-4-1"
           cx="-326.50021"
           cy="-210.44553" />
        <ellipse
           cy="-173.5639"
           cx="-339.34802"
           id="circle9558-5-6-3-5"
           style="opacity:1;vector-effect:none;fill:#000000;fill-opacity:1;stroke:none;stroke-width:0.26458326;stroke-linecap:round;stroke-linejoin:round;stroke-miterlimit:4;stroke-dasharray:none;stroke-dashoffset:0;stroke-opacity:1;marker:none"
           rx="2.708041"
           ry="2.7080421" />
        <ellipse
           cy="-224.98923"
           cx="-351.45999"
           id="circle9558-5-5-4"
           style="opacity:1;vector-effect:none;fill:#000000;fill-opacity:1;stroke:none;stroke-width:0.26458326;stroke-linecap:round;stroke-linejoin:round;stroke-miterlimit:4;stroke-dasharray:none;stroke-dashoffset:0;stroke-opacity:1;marker:none"
           rx="2.708041"
           ry="2.7080421" />
        <ellipse
           ry="1.3540211"
           rx="1.3540198"
           style="opacity:1;vector-effect:none;fill:#000000;fill-opacity:1;stroke:none;stroke-width:0.26458326;stroke-linecap:round;stroke-linejoin:round;stroke-miterlimit:4;stroke-dasharray:none;stroke-dashoffset:0;stroke-opacity:1;marker:none"
           id="ellipse9617-6-0-1-5-0"
           cx="-349.91852"
           cy="-232.40331" />
        <ellipse
           cy="-237.82137"
           cx="-350.74435"
           id="circle9558-5-5-1-1"
           style="opacity:1;vector-effect:none;fill:#000000;fill-opacity:1;stroke:none;stroke-width:0.26458326;stroke-linecap:round;stroke-linejoin:round;stroke-miterlimit:4;stroke-dasharray:none;stroke-dashoffset:0;stroke-opacity:1;marker:none"
           rx="2.708041"
           ry="2.7080421" />
        <ellipse
           ry="1.3540211"
           rx="1.3540198"
           style="opacity:1;vector-effect:none;fill:#000000;fill-opacity:1;stroke:none;stroke-width:0.26458326;stroke-linecap:round;stroke-linejoin:round;stroke-miterlimit:4;stroke-dasharray:none;stroke-dashoffset:0;stroke-opacity:1;marker:none"
           id="ellipse9617-6-0-1-5-4-7"
           cx="-325.00165"
           cy="-249.92621" />
        <ellipse
           cy="-226.44444"
           cx="-384.26831"
           id="circle9558-5-5-1-3-1"
           style="opacity:1;vector-effect:none;fill:#000000;fill-opacity:1;stroke:none;stroke-width:0.26458326;stroke-linecap:round;stroke-linejoin:round;stroke-miterlimit:4;stroke-dasharray:none;stroke-dashoffset:0;stroke-opacity:1;marker:none"
           rx="2.708041"
           ry="2.7080421" />
        <ellipse
           ry="1.3540211"
           rx="1.3540198"
           style="opacity:1;vector-effect:none;fill:#000000;fill-opacity:1;stroke:none;stroke-width:0.26458326;stroke-linecap:round;stroke-linejoin:round;stroke-miterlimit:4;stroke-dasharray:none;stroke-dashoffset:0;stroke-opacity:1;marker:none"
           id="ellipse9617-6-0-1-5-6-7"
           cx="-346.96207"
           cy="-247.6111" />
        <ellipse
           ry="1.3540211"
           rx="1.3540198"
           style="opacity:1;vector-effect:none;fill:#000000;fill-opacity:1;stroke:none;stroke-width:0.26458326;stroke-linecap:round;stroke-linejoin:round;stroke-miterlimit:4;stroke-dasharray:none;stroke-dashoffset:0;stroke-opacity:1;marker:none"
           id="ellipse9617-6-0-1-5-2-7"
           cx="-349.07874"
           cy="-253.56422" />
        <ellipse
           ry="1.3540211"
           rx="1.3540198"
           style="opacity:1;vector-effect:none;fill:#000000;fill-opacity:1;stroke:none;stroke-width:0.26458326;stroke-linecap:round;stroke-linejoin:round;stroke-miterlimit:4;stroke-dasharray:none;stroke-dashoffset:0;stroke-opacity:1;marker:none"
           id="ellipse9617-6-0-1-5-4-2-2"
           cx="-320.82623"
           cy="-251.95407" />
        <ellipse
           ry="1.3540211"
           rx="1.3540198"
           style="opacity:1;vector-effect:none;fill:#000000;fill-opacity:1;stroke:none;stroke-width:0.26458326;stroke-linecap:round;stroke-linejoin:round;stroke-miterlimit:4;stroke-dasharray:none;stroke-dashoffset:0;stroke-opacity:1;marker:none"
           id="ellipse9617-6-0-8-0"
           cx="-308.66547"
           cy="-157.34628" />
        <ellipse
           cy="-161.40834"
           cx="-312.72754"
           id="ellipse9886-4-1-6"
           style="opacity:1;vector-effect:none;fill:#000000;fill-opacity:1;stroke:none;stroke-width:0.26458326;stroke-linecap:round;stroke-linejoin:round;stroke-miterlimit:4;stroke-dasharray:none;stroke-dashoffset:0;stroke-opacity:1;marker:none"
           rx="2.708041"
           ry="2.7080421" />
        <ellipse
           cy="-149.31839"
           cx="-310.84644"
           id="ellipse9886-4-0-0"
           style="opacity:1;vector-effect:none;fill:#000000;fill-opacity:1;stroke:none;stroke-width:0.26458326;stroke-linecap:round;stroke-linejoin:round;stroke-miterlimit:4;stroke-dasharray:none;stroke-dashoffset:0;stroke-opacity:1;marker:none"
           rx="2.708041"
           ry="2.7080421" />
        <ellipse
           cy="-243.16423"
           cx="-287.10822"
           id="circle9558-5-5-1-9-1"
           style="opacity:1;vector-effect:none;fill:#000000;fill-opacity:1;stroke:none;stroke-width:0.26458326;stroke-linecap:round;stroke-linejoin:round;stroke-miterlimit:4;stroke-dasharray:none;stroke-dashoffset:0;stroke-opacity:1;marker:none"
           rx="2.708041"
           ry="2.7080421" />
        <ellipse
           ry="1.3540211"
           rx="1.3540198"
           style="opacity:1;vector-effect:none;fill:#000000;fill-opacity:1;stroke:none;stroke-width:0.26458326;stroke-linecap:round;stroke-linejoin:round;stroke-miterlimit:4;stroke-dasharray:none;stroke-dashoffset:0;stroke-opacity:1;marker:none"
           id="ellipse9617-6-8-0"
           cx="-376.33084"
           cy="-249.59547" />
        <ellipse
           ry="1.3540211"
           rx="1.3540198"
           style="opacity:1;vector-effect:none;fill:#000000;fill-opacity:1;stroke:none;stroke-width:0.26458326;stroke-linecap:round;stroke-linejoin:round;stroke-miterlimit:4;stroke-dasharray:none;stroke-dashoffset:0;stroke-opacity:1;marker:none"
           id="ellipse9617-6-80-3"
           cx="-403.66504"
           cy="-179.91267" />
        <ellipse
           ry="1.3540211"
           rx="1.3540198"
           style="opacity:1;vector-effect:none;fill:#000000;fill-opacity:1;stroke:none;stroke-width:0.26458326;stroke-linecap:round;stroke-linejoin:round;stroke-miterlimit:4;stroke-dasharray:none;stroke-dashoffset:0;stroke-opacity:1;marker:none"
           id="ellipse9617-6-5-8"
           cx="-266.91693"
           cy="-190.58467" />
        <ellipse
           cy="-196.66464"
           cx="-265.60269"
           id="ellipse9886-4-9-4"
           style="opacity:1;vector-effect:none;fill:#000000;fill-opacity:1;stroke:none;stroke-width:0.26458326;stroke-linecap:round;stroke-linejoin:round;stroke-miterlimit:4;stroke-dasharray:none;stroke-dashoffset:0;stroke-opacity:1;marker:none"
           rx="2.708041"
           ry="2.7080421" />
      </g>
      <rect
         clip-path="url(#clipPath14465)"
         style="opacity:0.5;vector-effect:none;fill:url(#linearGradient10579-4);fill-opacity:1;stroke:none;stroke-width:0.26458329;stroke-linecap:round;stroke-linejoin:round;stroke-miterlimit:4;stroke-dasharray:none;stroke-dashoffset:0;stroke-opacity:1;marker:none"
         id="rect9842-6"
         width="152.85144"
         height="70.873749"
         x="-411.04407"
         y="-262.75107" />
    </g>
  </g>
</svg>
