<?xml version="1.0" encoding="UTF-8"?>
<!DOCTYPE svg PUBLIC "-//W3C//DTD SVG 1.1//EN" "http://www.w3.org/Graphics/SVG/1.1/DTD/svg11.dtd">
<svg version="1.1" xmlns="http://www.w3.org/2000/svg" xmlns:xlink="http://www.w3.org/1999/xlink" x="0" y="0" width="624" height="624" viewBox="0, 0, 624, 624">
  <defs>
    <linearGradient id="Gradient_1" gradientUnits="userSpaceOnUse" x1="335.835" y1="339.954" x2="199.916" y2="530.662">
      <stop offset="0" stop-color="#D2BFAD"/>
      <stop offset="0.481" stop-color="#CAC2BB"/>
      <stop offset="1" stop-color="#CAC2BB"/>
    </linearGradient>
    <linearGradient id="Gradient_2" gradientUnits="userSpaceOnUse" x1="210.361" y1="372.585" x2="188.194" y2="403.688">
      <stop offset="0" stop-color="#D2BFAD"/>
      <stop offset="0.481" stop-color="#CAC2BB"/>
      <stop offset="1" stop-color="#CAC2BB"/>
    </linearGradient>
    <linearGradient id="Gradient_3" gradientUnits="userSpaceOnUse" x1="252.515" y1="383.29" x2="232.892" y2="410.824">
      <stop offset="0" stop-color="#D2BFAD"/>
      <stop offset="0.481" stop-color="#CAC2BB"/>
      <stop offset="1" stop-color="#CAC2BB"/>
    </linearGradient>
    <linearGradient id="Gradient_4" gradientUnits="userSpaceOnUse" x1="300.797" y1="417.562" x2="283.694" y2="441.56">
      <stop offset="0" stop-color="#D2BFAD"/>
      <stop offset="0.481" stop-color="#CAC2BB"/>
      <stop offset="1" stop-color="#CAC2BB"/>
    </linearGradient>
    <linearGradient id="Gradient_5" gradientUnits="userSpaceOnUse" x1="336.953" y1="420.542" x2="319.53" y2="444.988">
      <stop offset="0" stop-color="#D2BFAD"/>
      <stop offset="0.481" stop-color="#CAC2BB"/>
      <stop offset="1" stop-color="#CAC2BB"/>
    </linearGradient>
    <linearGradient id="Gradient_6" gradientUnits="userSpaceOnUse" x1="323.043" y1="231.895" x2="187.121" y2="422.607">
      <stop offset="0" stop-color="#D2BFAD"/>
      <stop offset="0.481" stop-color="#CAC2BB"/>
      <stop offset="1" stop-color="#CAC2BB"/>
    </linearGradient>
    <linearGradient id="Gradient_7" gradientUnits="userSpaceOnUse" x1="197.567" y1="264.531" x2="175.398" y2="295.637">
      <stop offset="0" stop-color="#D2BFAD"/>
      <stop offset="0.481" stop-color="#CAC2BB"/>
      <stop offset="1" stop-color="#CAC2BB"/>
    </linearGradient>
    <linearGradient id="Gradient_8" gradientUnits="userSpaceOnUse" x1="239.722" y1="275.235" x2="220.101" y2="302.765">
      <stop offset="0" stop-color="#D2BFAD"/>
      <stop offset="0.481" stop-color="#CAC2BB"/>
      <stop offset="1" stop-color="#CAC2BB"/>
    </linearGradient>
    <linearGradient id="Gradient_9" gradientUnits="userSpaceOnUse" x1="287.999" y1="309.507" x2="270.906" y2="333.49">
      <stop offset="0" stop-color="#D2BFAD"/>
      <stop offset="0.481" stop-color="#CAC2BB"/>
      <stop offset="1" stop-color="#CAC2BB"/>
    </linearGradient>
    <linearGradient id="Gradient_10" gradientUnits="userSpaceOnUse" x1="324.16" y1="312.489" x2="306.738" y2="336.935">
      <stop offset="0" stop-color="#D2BFAD"/>
      <stop offset="0.481" stop-color="#CAC2BB"/>
      <stop offset="1" stop-color="#CAC2BB"/>
    </linearGradient>
    <linearGradient id="Gradient_11" gradientUnits="userSpaceOnUse" x1="350.383" y1="191.852" x2="318.526" y2="279.458">
      <stop offset="0" stop-color="#E2794A"/>
      <stop offset="1" stop-color="#D05A34"/>
    </linearGradient>
    <linearGradient id="Gradient_12" gradientUnits="userSpaceOnUse" x1="87.366" y1="184.79" x2="511.812" y2="392.791">
      <stop offset="0" stop-color="#A97866"/>
      <stop offset="0.54" stop-color="#A15539"/>
      <stop offset="1" stop-color="#AD595A"/>
    </linearGradient>
    <linearGradient id="Gradient_13" gradientUnits="userSpaceOnUse" x1="121.469" y1="191.472" x2="131.719" y2="191.472">
      <stop offset="0" stop-color="#EAA6A9"/>
      <stop offset="0.996" stop-color="#C77D7A"/>
      <stop offset="1" stop-color="#C77D7A"/>
    </linearGradient>
    <linearGradient id="Gradient_14" gradientUnits="userSpaceOnUse" x1="122.901" y1="228.666" x2="131.585" y2="228.666">
      <stop offset="0" stop-color="#A07E87"/>
      <stop offset="0.996" stop-color="#9E564C"/>
      <stop offset="1" stop-color="#9E564C"/>
    </linearGradient>
    <linearGradient id="Gradient_15" gradientUnits="userSpaceOnUse" x1="231.632" y1="184.374" x2="344.991" y2="184.374">
      <stop offset="0" stop-color="#EAA6A9"/>
      <stop offset="0.996" stop-color="#C77D7A"/>
      <stop offset="1" stop-color="#C77D7A"/>
    </linearGradient>
    <linearGradient id="Gradient_16" gradientUnits="userSpaceOnUse" x1="271.831" y1="178.688" x2="317.14" y2="178.688">
      <stop offset="0" stop-color="#EAA6A9"/>
      <stop offset="0.996" stop-color="#C77D7A"/>
      <stop offset="1" stop-color="#C77D7A"/>
    </linearGradient>
    <linearGradient id="Gradient_17" gradientUnits="userSpaceOnUse" x1="283.468" y1="165.543" x2="283.629" y2="165.543">
      <stop offset="0" stop-color="#EAA6A9"/>
      <stop offset="0.996" stop-color="#C77D7A"/>
      <stop offset="1" stop-color="#C77D7A"/>
    </linearGradient>
    <linearGradient id="Gradient_18" gradientUnits="userSpaceOnUse" x1="296.019" y1="221.151" x2="373.461" y2="221.151">
      <stop offset="0" stop-color="#EAA6A9"/>
      <stop offset="0.996" stop-color="#C77D7A"/>
      <stop offset="1" stop-color="#C77D7A"/>
    </linearGradient>
    <linearGradient id="Gradient_19" gradientUnits="userSpaceOnUse" x1="190.315" y1="189.127" x2="222.844" y2="189.127">
      <stop offset="0" stop-color="#EAA6A9"/>
      <stop offset="0.996" stop-color="#C77D7A"/>
      <stop offset="1" stop-color="#C77D7A"/>
    </linearGradient>
    <linearGradient id="Gradient_20" gradientUnits="userSpaceOnUse" x1="201.68" y1="236.949" x2="305.406" y2="236.949">
      <stop offset="0" stop-color="#A07E87"/>
      <stop offset="0.996" stop-color="#9E564C"/>
      <stop offset="1" stop-color="#9E564C"/>
    </linearGradient>
    <linearGradient id="Gradient_21" gradientUnits="userSpaceOnUse" x1="160.432" y1="189.517" x2="173.914" y2="189.517">
      <stop offset="0" stop-color="#EAA6A9"/>
      <stop offset="0.996" stop-color="#C77D7A"/>
      <stop offset="1" stop-color="#C77D7A"/>
    </linearGradient>
    <linearGradient id="Gradient_22" gradientUnits="userSpaceOnUse" x1="162.136" y1="233.044" x2="182.668" y2="233.044">
      <stop offset="0" stop-color="#A07E87"/>
      <stop offset="0.996" stop-color="#9E564C"/>
      <stop offset="1" stop-color="#9E564C"/>
    </linearGradient>
    <linearGradient id="Gradient_23" gradientUnits="userSpaceOnUse" x1="342.284" y1="303.248" x2="380.695" y2="303.248">
      <stop offset="0" stop-color="#A07E87"/>
      <stop offset="0.996" stop-color="#9E564C"/>
      <stop offset="1" stop-color="#9E564C"/>
    </linearGradient>
    <linearGradient id="Gradient_24" gradientUnits="userSpaceOnUse" x1="370.992" y1="292.422" x2="471.152" y2="292.422">
      <stop offset="0" stop-color="#EAA6A9"/>
      <stop offset="0.996" stop-color="#C77D7A"/>
      <stop offset="1" stop-color="#C77D7A"/>
    </linearGradient>
    <linearGradient id="Gradient_25" gradientUnits="userSpaceOnUse" x1="329.993" y1="249.244" x2="435.475" y2="249.244">
      <stop offset="0" stop-color="#EAA6A9"/>
      <stop offset="0.996" stop-color="#C77D7A"/>
      <stop offset="1" stop-color="#C77D7A"/>
    </linearGradient>
    <linearGradient id="Gradient_26" gradientUnits="userSpaceOnUse" x1="292.137" y1="271.318" x2="335.148" y2="271.318">
      <stop offset="0" stop-color="#A07E87"/>
      <stop offset="0.996" stop-color="#9E564C"/>
      <stop offset="1" stop-color="#9E564C"/>
    </linearGradient>
    <linearGradient id="Gradient_27" gradientUnits="userSpaceOnUse" x1="369.669" y1="299.763" x2="324.945" y2="402.08">
      <stop offset="0" stop-color="#E2794A"/>
      <stop offset="1" stop-color="#D05A34"/>
    </linearGradient>
    <linearGradient id="Gradient_28" gradientUnits="userSpaceOnUse" x1="82.029" y1="290.857" x2="535.268" y2="512.967">
      <stop offset="0" stop-color="#AE8A6E"/>
      <stop offset="0.54" stop-color="#A5663C"/>
      <stop offset="1" stop-color="#B26A61"/>
    </linearGradient>
    <linearGradient id="Gradient_29" gradientUnits="userSpaceOnUse" x1="118.919" y1="294.828" x2="129.743" y2="294.828">
      <stop offset="0" stop-color="#F3BEB8"/>
      <stop offset="0.996" stop-color="#CE9185"/>
      <stop offset="1" stop-color="#CE9185"/>
    </linearGradient>
    <linearGradient id="Gradient_30" gradientUnits="userSpaceOnUse" x1="120.434" y1="336.998" x2="129.603" y2="336.998">
      <stop offset="0" stop-color="#A69193"/>
      <stop offset="0.996" stop-color="#A46553"/>
      <stop offset="1" stop-color="#A46553"/>
    </linearGradient>
    <linearGradient id="Gradient_31" gradientUnits="userSpaceOnUse" x1="235.227" y1="286.786" x2="354.906" y2="286.786">
      <stop offset="0" stop-color="#F3BEB8"/>
      <stop offset="0.996" stop-color="#CE9185"/>
      <stop offset="1" stop-color="#CE9185"/>
    </linearGradient>
    <linearGradient id="Gradient_32" gradientUnits="userSpaceOnUse" x1="277.667" y1="280.344" x2="325.507" y2="280.344">
      <stop offset="0" stop-color="#F3BEB8"/>
      <stop offset="0.996" stop-color="#CE9185"/>
      <stop offset="1" stop-color="#CE9185"/>
    </linearGradient>
    <linearGradient id="Gradient_33" gradientUnits="userSpaceOnUse" x1="289.957" y1="265.44" x2="290.126" y2="265.44">
      <stop offset="0" stop-color="#F3BEB8"/>
      <stop offset="0.996" stop-color="#CE9185"/>
      <stop offset="1" stop-color="#CE9185"/>
    </linearGradient>
    <linearGradient id="Gradient_34" gradientUnits="userSpaceOnUse" x1="303.211" y1="328.473" x2="384.964" y2="328.473">
      <stop offset="0" stop-color="#F3BEB8"/>
      <stop offset="0.996" stop-color="#CE9185"/>
      <stop offset="1" stop-color="#CE9185"/>
    </linearGradient>
    <linearGradient id="Gradient_35" gradientUnits="userSpaceOnUse" x1="191.601" y1="292.17" x2="225.945" y2="292.17">
      <stop offset="0" stop-color="#F3BEB8"/>
      <stop offset="0.996" stop-color="#CE9185"/>
      <stop offset="1" stop-color="#CE9185"/>
    </linearGradient>
    <linearGradient id="Gradient_36" gradientUnits="userSpaceOnUse" x1="203.6" y1="346.387" x2="313.119" y2="346.387">
      <stop offset="0" stop-color="#A69193"/>
      <stop offset="0.996" stop-color="#A46553"/>
      <stop offset="1" stop-color="#A46553"/>
    </linearGradient>
    <linearGradient id="Gradient_37" gradientUnits="userSpaceOnUse" x1="160.052" y1="292.613" x2="174.28" y2="292.613">
      <stop offset="0" stop-color="#F3BEB8"/>
      <stop offset="0.996" stop-color="#CE9185"/>
      <stop offset="1" stop-color="#CE9185"/>
    </linearGradient>
    <linearGradient id="Gradient_38" gradientUnits="userSpaceOnUse" x1="161.854" y1="341.962" x2="183.532" y2="341.962">
      <stop offset="0" stop-color="#A69193"/>
      <stop offset="0.996" stop-color="#A46553"/>
      <stop offset="1" stop-color="#A46553"/>
    </linearGradient>
    <linearGradient id="Gradient_39" gradientUnits="userSpaceOnUse" x1="352.05" y1="421.541" x2="392.6" y2="421.541">
      <stop offset="0" stop-color="#A69193"/>
      <stop offset="0.996" stop-color="#A46553"/>
      <stop offset="1" stop-color="#A46553"/>
    </linearGradient>
    <linearGradient id="Gradient_40" gradientUnits="userSpaceOnUse" x1="382.354" y1="409.271" x2="488.104" y2="409.271">
      <stop offset="0" stop-color="#F3BEB8"/>
      <stop offset="0.996" stop-color="#CE9185"/>
      <stop offset="1" stop-color="#CE9185"/>
    </linearGradient>
    <linearGradient id="Gradient_41" gradientUnits="userSpaceOnUse" x1="339.07" y1="360.316" x2="450.445" y2="360.316">
      <stop offset="0" stop-color="#F3BEB8"/>
      <stop offset="0.996" stop-color="#CE9185"/>
      <stop offset="1" stop-color="#CE9185"/>
    </linearGradient>
    <linearGradient id="Gradient_42" gradientUnits="userSpaceOnUse" x1="299.104" y1="385.344" x2="344.519" y2="385.344">
      <stop offset="0" stop-color="#A69193"/>
      <stop offset="0.996" stop-color="#A46553"/>
      <stop offset="1" stop-color="#A46553"/>
    </linearGradient>
  </defs>
  <g id="Layer_1">
    <path d="M99.531,302.851 C100.943,305.979 111.694,309.812 117.065,308.792 C115.624,314.902 124.87,312.188 128.414,311.33 C128.436,319.683 128.928,321.005 135.867,322.123 C133.118,331.847 131.473,339.068 135.579,348.329 C136.922,351.373 140.016,349.58 141.316,348.877 C140.6,358.791 141.105,371.307 146.506,365.541 C143.061,371.476 140.6,384.975 147.308,383.878 C147.308,383.878 152.806,398.011 161.616,391.205 C163.937,400.064 164.646,398.461 169.069,396.274 C170.461,400.922 186.654,414.282 188.454,402.42 C189.39,404.951 189.509,414.886 200.295,415.8 C199.444,424.399 212.304,427.866 223.892,425.349 C225.628,430.749 241.343,431.972 247.081,425.51 C245.126,432.443 249.499,440.705 253.022,437.478 C252.326,445.662 256.475,453.122 267.809,451.118 C273.792,458.916 274.594,459.872 282.181,455.611 C283.523,463.782 295.483,466.608 302.944,463.142 C303.604,470.897 321.358,468.471 329.431,462.895 C327.343,472.36 335.21,475.798 344.597,470.103 C344.906,479.897 353.998,475.432 361.612,475.045 C361.612,475.045 344.646,487.645 381.159,483.75 C402.316,481.5 398.717,478.498 403.125,474.49 C403.125,474.49 410.479,483.377 422.06,476.255 C422.763,483.16 436.517,497.532 442.746,488.728 C449.763,491.337 453.11,491.407 457.497,485.621 C465.556,488.475 482.93,490.627 489.476,486.113 C493.104,483.61 490.418,482.302 488.456,480.066 C495.882,477.928 498.328,481.725 503.187,473.667 C401.67,432.366 307.55,380.785 222.71,311.077 C186.865,303.631 151.315,295.383 116.131,285.216 C109.634,292.304 106.308,295.826 99.531,302.851 z" fill="url(#Gradient_1)"/>
    <path d="M137.126,310.943 C135.305,316.814 136.17,322.439 143.061,317.672 C145.401,325.153 141.261,329.597 144.171,334.688 C149.754,331.587 147.124,330.765 154.17,331.376 C154.17,331.376 142.688,339.778 146.913,347.007 C152.482,356.548 156.743,345.438 156.743,345.438 C156.743,345.438 154.465,369.331 161.081,363.839 C167.69,358.341 169.195,351.837 169.639,348.87 C172.17,358.06 173.562,360.556 179.046,362.124 C171.144,365.794 164.569,367.102 164.64,374.316 C174.363,371.433 178.617,369.31 182.597,374.344 C178.659,382.486 175.89,389.51 180.663,393.989 C185.431,398.475 190.05,389.743 191.695,385.65 C190.901,397.575 193.319,408.488 201.378,405.872 C204.78,395.881 205.681,392.337 207.601,390.628 C207.601,390.628 210.054,402.673 212.339,403.967 C214.617,405.253 222.141,400.149 219.8,392.323 C219.8,392.323 221.402,397.596 224.89,401.836 C222.527,414.52 229.987,406.744 233.644,407.061 C231.261,417.122 234.073,420.799 242.623,419.78 C245.386,412.692 247.187,412.735 251.482,409.831 C251.876,415.779 248.508,424.666 255.188,426.53 C260.904,419.471 266.909,420.11 272.379,420.722 C272.295,429.631 269.749,436.163 272.836,440.318 C275.923,444.474 280.331,446.85 284.065,443.862 C287.229,449.185 285.984,451.568 291.75,455.063 C291.75,455.063 298.507,446.091 302.233,444.846 C302.233,444.846 298.296,437.189 299.429,433.027 C306.34,437.674 312.837,443.461 319.081,443.299 C311.276,450.028 309.511,455.393 312.147,457.707 C314.784,460.013 326.337,459.704 333.579,454.121 C340.828,448.538 344.667,441.837 344.667,441.837 C344.667,441.837 349.892,430.397 336.855,429.103 C331.287,428.548 327.223,422.916 321.598,420.103 C315.959,417.291 304.386,414.549 301.98,414.584 C299.562,414.626 290.921,399.298 286.202,404.663 C281.491,410.035 277.287,398.166 273.159,398.152 C269.032,398.138 261.445,393.912 257.881,395.058 C254.337,396.197 247.095,385.959 245.998,384.145 C244.922,382.346 236.394,379.167 229.046,377.143 C221.69,375.11 224.883,370.456 220.222,364.901 C218.358,362.687 215.039,362.595 213.281,366.399 C212.769,362.503 207.467,352.526 206.215,351.746 C204.105,350.452 201.82,356.295 201.82,356.295 C202.495,360.52 196.92,340.51 187.582,339.912 C190.401,343.688 190.269,344.869 189.909,347.836 C189.537,350.817 179.405,335.166 177.063,336.207 C178.547,329.71 174.132,326.384 171.256,327.361 C168.387,328.346 165.469,329.323 162.839,325.491 C161.792,323.972 157.187,324.253 157.095,319.458 C156.202,321.469 152.229,321.286 151.118,320.569 C148.945,319.17 149.811,315.788 149.479,315.274 C148.636,313.995 139.151,307.547 137.126,310.943" fill="#FFFFFE"/>
    <path d="M350.975,446.014 C351.164,448.102 348.745,453.228 351.944,456.947 C349.843,462.08 350.089,468.9 356.804,467.986 C363.519,467.072 367.526,465.068 371.042,461.904 C374.156,463.803 380.147,466.686 383.121,465.624 C376.729,468.985 368.968,472.697 371.569,475.517 C374.163,478.336 394.406,474.377 398.766,470.51 C403.8,473.696 407.484,474.019 411.07,473.738 C414.649,473.457 414.452,470.201 414.671,467.508 C418.052,470.201 419.452,470.686 424.796,471.115 C427.242,475.657 430.28,483.42 435.378,483.842 C440.496,484.264 439.175,479.032 439.167,477.253 C442.169,480.839 443.147,482.225 447.991,479.665 C452.836,477.099 454.313,473.077 449.145,468.83 C443.983,464.583 434.801,462.783 434.97,465.448 C431.145,464.302 423.157,457.917 412.828,458.149 C405.368,454.001 400.354,450.204 393.823,451.561 C388.937,448.636 382.404,444.614 375.886,445.599 C370.718,442.048 367.048,439.875 363.3,440.079 C359.553,440.276 350.019,435.087 350.975,446.014" fill="#FFFFFE"/>
    <path d="M197.581,369.134 C197.257,372.066 196.589,382.121 201.139,386.529 C205.702,390.931 203.107,394.053 205.483,398.349 C207.847,402.631 209.069,394.235 208.331,392.436 C207.601,390.635 208.423,381.755 210.062,378.577 C205.898,379.786 208.233,378.963 205.898,379.779 C203.558,380.595 198.319,370.562 199.008,368.276 C199.704,365.977 197.883,366.356 197.581,369.134 z" fill="url(#Gradient_2)"/>
    <path d="M240.387,400.936 C243.298,398.222 253.015,396.563 259.456,394.791 C265.91,393.019 255.996,388.266 255.996,388.266 C255.996,388.266 249.437,393.722 248.065,393.694 C246.694,393.666 235.746,392.949 231.366,390.038 C232.069,393.307 237.862,396.239 240.612,396.31 C239.149,398.124 240.387,400.936 240.387,400.936 z" fill="url(#Gradient_3)"/>
    <path d="M282.413,413.838 C285.232,416.138 288.087,418.43 290.027,421.643 C291.961,424.856 292.095,432.253 291.624,433.639 C291.167,435.024 292.96,429.005 297.417,434.489 C301.875,439.974 303.921,442.702 303.921,442.702 C303.921,442.702 297.839,431.712 297.691,425.714 C297.551,419.717 296.595,418.803 297.979,417.86 C299.365,416.925 296.116,418.824 292.812,418.852 C289.515,418.88 282.413,413.838 282.413,413.838 z" fill="url(#Gradient_4)"/>
    <path d="M330.246,420.813 C330.809,422.185 329.058,431.944 326.871,435.699 C324.671,439.446 336.159,430.299 339.218,426.495 C342.276,422.691 330.246,420.813 330.246,420.813 z" fill="url(#Gradient_5)"/>
    <path d="M86.741,194.787 C88.161,197.916 98.898,201.755 104.269,200.735 C102.827,206.846 112.073,204.139 115.617,203.274 C115.652,211.627 116.145,212.949 123.07,214.074 C120.328,223.791 118.683,231.005 122.782,240.272 C124.132,243.324 127.219,241.524 128.526,240.813 C127.803,250.728 128.315,263.243 133.723,257.485 C130.264,263.419 127.816,276.912 134.511,275.815 C134.511,275.815 140.009,289.955 148.819,283.149 C151.146,292.008 151.85,290.405 156.272,288.226 C157.671,292.873 173.857,306.232 175.657,294.371 C176.6,296.902 176.712,306.83 187.512,307.737 C186.654,316.351 199.515,319.803 211.095,317.3 C212.831,322.686 228.554,323.909 234.298,317.447 C232.329,324.38 236.71,332.649 240.232,329.429 C239.543,337.613 243.678,345.066 255.012,343.055 C260.995,350.86 261.797,351.816 269.384,347.548 C270.727,355.732 282.687,358.552 290.147,355.079 C290.815,362.841 308.569,360.415 316.634,354.847 C314.553,364.311 322.421,367.749 331.8,362.054 C332.116,371.841 341.201,367.376 348.823,366.989 C348.823,366.989 331.863,379.589 368.362,375.701 C389.52,373.451 385.92,370.449 390.335,366.441 C390.335,366.441 397.683,375.321 409.263,368.199 C409.98,375.103 423.72,389.475 429.956,380.672 C436.966,383.288 440.32,383.358 444.7,377.557 C452.759,380.412 470.133,382.571 476.687,378.057 C480.308,375.561 477.628,374.246 475.659,372.01 C483.091,369.872 485.538,373.669 490.397,365.611 C388.873,324.31 294.767,272.728 209.913,203.014 C174.068,195.582 138.519,187.334 103.348,177.16 C96.837,184.24 93.511,187.763 86.741,194.787 z" fill="url(#Gradient_6)"/>
    <path d="M124.329,202.894 C122.515,208.758 123.373,214.383 130.277,209.623 C132.604,217.104 128.464,221.534 131.382,226.632 C136.964,223.538 134.335,222.701 141.373,223.327 C141.373,223.327 129.897,231.722 134.116,238.95 C139.699,248.499 143.946,237.39 143.946,237.39 C143.946,237.39 141.675,261.274 148.284,255.783 C154.894,250.292 156.398,243.774 156.842,240.807 C159.387,250.011 160.772,252.507 166.249,254.067 C158.347,257.745 151.779,259.053 151.843,266.26 C161.573,263.377 165.827,261.253 169.8,266.295 C165.862,274.43 163.1,281.454 167.866,285.94 C172.634,290.419 177.261,281.693 178.898,277.594 C178.118,289.519 180.53,300.432 188.595,297.823 C191.983,287.817 192.891,284.274 194.804,282.572 C194.804,282.572 197.265,294.624 199.542,295.903 C201.827,297.197 209.351,292.1 207.017,284.267 C207.017,284.267 208.605,289.54 212.101,293.787 C209.73,306.472 217.19,298.681 220.847,299.011 C218.464,309.073 221.276,312.736 229.84,311.724 C232.589,304.644 234.39,304.679 238.699,301.774 C239.086,307.73 235.718,316.603 242.397,318.474 C248.121,311.415 254.112,312.047 259.582,312.659 C259.512,321.567 256.96,328.106 260.046,332.269 C263.126,336.425 267.542,338.794 271.282,335.806 C274.433,341.136 273.194,343.519 278.953,347.014 C278.953,347.014 285.718,338.042 289.444,336.783 C289.444,336.783 285.507,329.133 286.632,324.971 C293.543,329.611 300.047,335.412 306.298,335.243 C298.493,341.979 296.722,347.337 299.358,349.644 C301.995,351.957 313.54,351.654 320.789,346.064 C328.038,340.475 331.87,333.788 331.87,333.788 C331.87,333.788 337.095,322.341 324.059,321.04 C318.49,320.485 314.426,314.86 308.801,312.047 C303.176,309.235 291.603,306.493 289.184,306.535 C286.772,306.563 278.124,291.235 273.413,296.606 C268.702,301.978 264.49,290.103 260.362,290.096 C256.235,290.082 248.655,285.863 245.098,287.002 C241.54,288.141 234.298,277.896 233.215,276.097 C232.132,274.282 223.597,271.111 216.249,269.079 C208.901,267.062 212.093,262.399 207.438,256.845 C205.568,254.623 202.249,254.546 200.484,258.343 C199.985,254.447 194.684,244.47 193.418,243.689 C191.315,242.389 189.023,248.246 189.023,248.246 C189.698,252.464 184.137,232.454 174.785,231.863 C177.604,235.632 177.485,236.813 177.112,239.787 C176.74,242.761 166.615,227.11 164.273,228.15 C165.75,221.653 161.335,218.321 158.459,219.305 C155.59,220.282 152.679,221.26 150.05,217.435 C149.009,215.916 144.396,216.19 144.298,211.409 C143.405,213.42 139.446,213.237 138.321,212.513 C136.155,211.106 137.014,207.725 136.683,207.211 C135.839,205.938 126.368,199.498 124.329,202.894" fill="#FFFFFE"/>
    <path d="M338.191,337.964 C338.374,340.046 335.948,345.179 339.155,348.884 C337.046,354.024 337.292,360.844 344.007,359.93 C350.735,359.016 354.729,357.019 358.259,353.841 C361.366,355.753 367.357,358.622 370.331,357.567 C363.933,360.936 356.171,364.634 358.772,367.454 C361.374,370.28 381.609,366.321 385.976,362.447 C391.011,365.646 394.694,365.963 398.273,365.682 C401.853,365.4 401.663,362.152 401.881,359.452 C405.27,362.152 406.655,362.63 412.005,363.066 C414.445,367.608 417.483,375.371 422.595,375.792 C427.699,376.214 426.392,370.983 426.378,369.197 C429.387,372.776 430.351,374.175 435.194,371.602 C440.046,369.05 441.522,365.02 436.354,360.767 C431.194,356.534 422.004,354.72 422.173,357.385 C418.354,356.253 410.36,349.854 400.038,350.101 C392.571,345.952 387.565,342.155 381.04,343.505 C376.146,340.58 369.621,336.565 363.089,337.55 C357.921,333.999 354.251,331.826 350.511,332.016 C346.77,332.22 337.222,327.038 338.191,337.964" fill="#FFFFFE"/>
    <path d="M184.784,261.071 C184.468,264.003 183.792,274.058 188.355,278.466 C192.905,282.882 190.324,286.003 192.687,290.292 C195.05,294.582 196.28,286.187 195.542,284.386 C194.804,282.579 195.633,273.699 197.265,270.52 C193.108,271.737 195.437,270.907 193.102,271.73 C190.774,272.546 185.522,262.505 186.218,260.22 C186.907,257.928 185.093,258.3 184.784,261.071 z" fill="url(#Gradient_7)"/>
    <path d="M227.597,292.88 C230.508,290.166 240.218,288.514 246.673,286.735 C253.12,284.963 243.206,280.217 243.206,280.217 C243.206,280.217 236.64,285.659 235.269,285.631 C233.897,285.603 222.949,284.893 218.569,281.981 C219.279,285.244 225.073,288.19 227.829,288.253 C226.359,290.067 227.597,292.88 227.597,292.88 z" fill="url(#Gradient_8)"/>
    <path d="M269.616,305.775 C272.436,308.082 275.297,310.374 277.23,313.587 C279.171,316.808 279.298,324.197 278.834,325.575 C278.384,326.975 280.163,320.956 284.628,326.44 C289.078,331.917 291.132,334.639 291.132,334.639 C291.132,334.639 285.042,323.663 284.901,317.658 C284.761,311.667 283.798,310.753 285.183,309.812 C286.582,308.869 283.319,310.761 280.015,310.796 C276.718,310.831 269.616,305.775 269.616,305.775 z" fill="url(#Gradient_9)"/>
    <path d="M317.456,312.765 C318.019,314.128 316.261,323.881 314.074,327.643 C311.881,331.397 323.37,322.243 326.421,318.438 C329.479,314.635 317.456,312.765 317.456,312.765 z" fill="url(#Gradient_10)"/>
    <path d="M538.659,365.386 C522.938,352.786 510.823,334.843 496.647,320.956 C487.718,312.202 483.19,300.319 471.152,288.253 C469.585,285.673 469.731,283.599 468.087,280.856 C461.273,266.78 452.168,251.199 438.858,241.517 C434.948,237.586 431.222,234.282 426.765,230.717 C414.255,220.064 399.757,210.53 383.824,204.912 C379.05,202.669 374.156,200.482 369.206,198.352 C361.57,192.038 350.854,188.923 345.237,188.065 C342.312,186.8 339.485,185.604 336.785,184.479 C332.735,180.872 323.573,177.821 318.413,176.667 C309.532,172.92 313.062,175.036 309.687,173.981 C301.77,167.527 287.116,165.818 283.629,165.579 C283.882,165.706 284.009,165.769 284.262,165.889 C283.952,165.783 283.657,165.671 283.354,165.565 C283.446,165.565 283.53,165.572 283.629,165.579 C280.472,163.983 278.904,163.182 275.782,161.571 C271.24,158.851 260.313,156.066 253.55,156.966 C242.089,154.892 234.628,154.308 224.757,155.208 C216.931,155.925 215.187,152.874 208.029,153.274 C196.448,153.915 185.923,155.785 177.274,158.893 C173.829,159.455 170.468,160.053 167.206,160.65 C155.421,159.202 141.176,163.125 133.582,167.147 C129.982,167.696 126.678,168.743 123.485,169.003 C105.281,170.438 91.452,181.997 82.331,195.863 C70.892,213.251 80.714,223.524 80.714,223.524 C82.999,233.466 92.133,233.628 99.34,236.412 C119.843,244.329 145.852,242.079 167.501,245.553 C218.491,253.709 289.922,270.12 332.081,297.942 C364.024,319.029 389.808,358.988 429.077,370.758 C461.921,380.623 507.089,391.268 541.761,380.651 C541.761,380.651 562.53,384.511 538.659,365.386 z" fill="url(#Gradient_11)"/>
    <path d="M447.921,363.136 C412.075,353.532 409.468,322.299 380.801,303.947 C353.203,286.285 330.492,256.985 300.813,241.938 C262.24,222.378 203.993,221.442 159.78,218.307 C132.035,216.338 104.444,211.831 76.798,208.589 C75.202,218.131 80.714,223.524 80.714,223.524 C82.999,233.466 92.133,233.628 99.34,236.412 C119.843,244.329 145.852,242.079 167.501,245.553 C218.491,253.709 289.922,270.12 332.081,297.942 C364.024,319.029 389.808,358.988 429.077,370.758 C461.836,380.595 504.649,390.165 539.468,381.375 C511.597,369.577 475.14,370.428 447.921,363.136 z" fill="url(#Gradient_12)"/>
    <path d="M283.354,165.565 L283.222,165.962 L283.328,165.997 L283.766,166.143 L283.875,165.656 L283.988,165.147 L280.781,165.147 L283.222,165.962 L283.354,165.565 L283.354,165.983 L283.468,165.983 L283.468,165.565 L283.06,165.475 L283.052,165.51 L283.46,165.601 L283.592,165.204 L283.486,165.169 L283.354,165.565 L283.354,165.983 L283.354,165.565" fill="#3B9B62"/>
    <path d="M131.719,214.946 C129.743,209.869 127.887,188.74 127.24,184.269 C126.909,181.85 129.117,174.706 131.558,167.513 C129.117,167.991 126.79,168.589 124.519,168.884 C123.773,174.361 123.514,180.485 122.262,188.466 C119.857,203.71 123.387,209.342 126.678,214.608 C126.847,214.868 126.959,215.149 127.071,215.431 C128.772,215.431 130.144,215.431 131.585,215.431 C131.628,215.269 131.67,215.086 131.719,214.946 z" fill="url(#Gradient_13)"/>
    <path d="M127.071,215.431 C129.188,220.943 121.917,231.174 123.261,240.596 C123.112,240.905 123.042,241.053 122.901,241.355 C124.639,241.552 126.417,241.735 128.218,241.903 C129.378,232.545 130.425,219.643 131.585,215.431 C130.144,215.431 128.772,215.431 127.071,215.431 z" fill="url(#Gradient_14)"/>
    <path d="M251.461,208.997 C255.223,215.339 270.171,213.94 285.886,207.654 C304.772,200.089 325.542,195.209 344.991,187.96 C342.157,186.729 339.401,185.569 336.785,184.479 L336.581,184.311 C329.136,188.318 314.742,196.411 304.237,196.854 C292.46,197.339 276.563,211.627 267.373,207.837 C258.19,204.047 252.812,205.222 245.548,191.342 C238.264,177.455 236.14,171.232 241.562,163.758 C243.312,161.339 247.327,158.907 251.904,156.678 C249.534,156.263 247.327,155.911 245.218,155.63 C238.024,159.638 230.171,166.542 231.865,178.615 C234.671,198.612 251.461,208.997 251.461,208.997 z" fill="url(#Gradient_15)"/>
    <path d="M278.074,195.047 C283.319,192.417 301.517,184.198 312.964,178.362 C314.524,177.567 315.902,176.829 317.14,176.133 C310.495,173.377 312.457,174.706 310.354,174.179 C303.703,179.178 300.954,181.744 292.404,184.472 C283.362,187.341 278.173,186.16 279.537,175.937 C280.058,172.055 281.667,168.519 283.46,165.601 L283.354,165.565 L283.468,165.565 L283.517,165.509 C280.683,164.082 279.27,163.357 276.464,161.916 C271.999,167.4 271.831,176.119 271.831,176.119 C279.354,187.376 272.815,197.677 278.074,195.047 z" fill="url(#Gradient_16)"/>
    <path d="M283.629,165.579 L283.517,165.509 L283.468,165.565 L283.629,165.579 z" fill="url(#Gradient_17)"/>
    <path d="M369.206,198.352 C368.953,198.141 368.679,197.944 368.412,197.733 C368.3,197.804 368.201,197.874 368.089,197.944 C363.462,200.862 352.465,211.409 338.382,219.649 C321.921,229.29 302.107,236.454 297.987,240.209 C297.354,240.145 296.693,240.132 296.019,240.139 C298.12,241.552 303.155,240.356 305.405,244.568 C305.524,244.491 305.644,244.428 305.764,244.351 C327.519,231.188 355.011,219.839 372.722,201.017 C372.976,200.757 373.214,200.476 373.46,200.201 C372.047,199.589 370.634,198.971 369.206,198.352 z" fill="url(#Gradient_18)"/>
    <path d="M210.469,223.327 C209.745,222.75 209.351,222.413 209.351,222.413 C209.351,222.413 200.695,211.972 198.108,195.821 C195.514,179.67 201.272,175.205 213.604,163.252 C216.812,160.144 219.954,157.5 222.844,155.307 C221.171,155.321 219.792,155.166 218.555,154.927 C218.478,154.969 218.407,155.025 218.315,155.082 C204.05,163.8 189.41,177.708 190.359,194.105 C191.014,205.383 196.828,215.782 201.68,220.774 C204.604,220.261 207.537,223.003 210.469,223.327 z" fill="url(#Gradient_19)"/>
    <path d="M296.019,240.139 C285.035,240.286 268.589,249.483 258.323,246.86 C241.863,247.332 230.101,235.041 222.218,230.907 C216.516,227.933 212.339,224.817 210.469,223.327 C207.537,223.003 204.604,220.261 201.68,220.774 C202.277,221.4 202.868,221.949 203.431,222.385 C214.892,236.391 236.899,246.938 254.147,251.86 C265.053,254.975 273.335,251.804 282.504,250.545 C300.11,248.133 297.839,249.16 305.405,244.568 C303.155,240.356 298.12,241.552 296.019,240.139 z" fill="url(#Gradient_20)"/>
    <path d="M167.831,190.245 C167.831,190.245 170.679,165.368 173.878,159.525 L173.913,159.462 C171.959,159.8 170.046,160.13 168.162,160.475 C168.176,160.566 168.19,160.644 168.204,160.721 C164.21,172.948 162.312,185.759 160.878,197.761 C159.443,209.757 161.925,218.476 161.925,218.476 C161.925,218.476 161.988,218.869 162.136,219.572 C164.104,219.417 165.651,217.688 167.508,217.111 C166.545,211.339 165.398,201.144 167.831,190.245 z" fill="url(#Gradient_21)"/>
    <path d="M182.104,248.175 C171.445,233.67 168.373,222.026 167.769,218.651 C167.684,218.18 167.593,217.667 167.508,217.111 C165.651,217.688 164.104,219.417 162.136,219.572 C163.008,223.728 166.805,238.761 177.773,247.753 C179.3,248.119 180.944,248.534 182.667,248.977 C182.484,248.717 182.295,248.442 182.104,248.175 z" fill="url(#Gradient_22)"/>
    <path d="M370.992,296.958 C370.858,296.972 370.718,296.986 370.592,296.993 C362.78,301.149 351.776,303.694 342.284,305.663 C343.816,306.907 345.363,308.201 346.925,309.537 C357.485,307.217 370.128,308.363 380.695,303.989 C375.577,303.982 374.769,298.618 370.992,296.958 z" fill="url(#Gradient_23)"/>
    <path d="M468.087,280.856 C450.944,291.649 446.859,288.647 431.757,289.639 C412.266,290.933 391.362,295.235 370.992,296.958 C374.769,298.618 375.577,303.982 380.695,303.989 L380.801,303.947 C399.701,302.956 418.714,301.985 437.528,301.219 C449.566,300.727 459.769,289.892 471.152,288.253 C469.585,285.673 469.731,283.599 468.087,280.856 z" fill="url(#Gradient_24)"/>
    <path d="M385.737,259.749 C401.438,255.326 422.32,250.214 434.309,238.5 C434.688,238.458 435.067,238.36 435.476,238.24 C433.219,236.11 430.913,234.099 428.409,232.053 C414.157,242.522 396.284,248.548 379.008,252.268 C363.054,255.706 342.663,255.516 329.993,261.626 C332.243,262.899 333.776,264.333 335.147,266.436 L335.386,266.323 C352.142,264.157 369.902,264.207 385.737,259.749 z" fill="url(#Gradient_25)"/>
    <path d="M329.993,261.626 C329.571,261.83 329.128,262.013 328.734,262.238 C325.493,263.975 307.269,272.672 292.137,277.791 C295.413,278.86 296.975,279.942 300.068,281.011 C300.476,280.674 303.654,278.705 304.167,278.508 C317.73,273.558 327.897,269.881 335.147,266.436 C333.776,264.333 332.243,262.899 329.993,261.626 z" fill="url(#Gradient_26)"/>
    <path d="M559.374,491.97 C542.78,477.696 529.989,457.355 515.027,441.605 C505.591,431.691 500.81,418.219 488.104,404.529 C486.452,401.618 486.606,399.263 484.863,396.162 C477.671,380.194 468.059,362.532 454.011,351.556 C449.89,347.112 445.952,343.357 441.241,339.314 C428.03,327.249 412.729,316.428 395.904,310.064 C390.862,307.526 385.694,305.037 380.478,302.625 C372.413,295.468 361.093,291.938 355.172,290.968 C352.078,289.533 349.09,288.169 346.249,286.903 C341.96,282.818 332.292,279.366 326.843,278.044 C317.464,273.797 321.204,276.202 317.632,275.014 C309.272,267.673 293.811,265.739 290.126,265.479 C290.386,265.62 290.526,265.69 290.78,265.831 C290.464,265.704 290.147,265.585 289.831,265.458 C289.922,265.458 290.014,265.472 290.126,265.479 C286.793,263.665 285.141,262.758 281.836,260.93 C277.048,257.851 265.503,254.687 258.373,255.713 C246.272,253.364 238.39,252.696 227.977,253.73 C219.694,254.532 217.858,251.072 210.321,251.529 C198.073,252.261 186.956,254.37 177.837,257.893 C174.202,258.532 170.651,259.214 167.206,259.89 C154.761,258.244 139.728,262.702 131.712,267.251 C127.915,267.877 124.421,269.065 121.046,269.353 C101.829,270.985 87.226,284.091 77.6,299.806 C65.52,319.521 75.898,331.172 75.898,331.172 C78.303,342.437 87.936,342.619 95.55,345.776 C117.206,354.748 144.656,352.21 167.515,356.126 C221.36,365.386 296.764,383.991 341.271,415.533 C375,439.425 402.226,484.721 443.688,498.08 C478.366,509.252 526.046,521.318 562.657,509.274 C562.657,509.274 584.573,513.654 559.374,491.97 z" fill="url(#Gradient_27)"/>
    <path d="M463.573,489.432 C425.737,478.54 422.974,443.138 392.712,422.339 C363.574,402.307 339.604,369.099 308.267,352.041 C267.542,329.857 206.046,328.803 159.366,325.245 C130.073,323.009 100.943,317.904 71.749,314.22 C70.07,325.048 75.898,331.172 75.898,331.172 C78.303,342.437 87.936,342.619 95.55,345.776 C117.206,354.748 144.656,352.21 167.515,356.126 C221.36,365.386 296.764,383.991 341.271,415.533 C375,439.425 402.218,484.721 443.688,498.08 C478.269,509.217 523.472,520.074 560.224,510.11 C530.813,496.73 492.316,497.693 463.573,489.432 z" fill="url(#Gradient_28)"/>
    <path d="M289.831,265.458 L289.66,265.882 L289.766,265.925 L290.162,266.084 L290.369,265.657 L290.685,265 L287.471,265 L289.66,265.882 L289.831,265.458 L289.831,265.915 L289.957,265.915 L289.957,265.458 L289.545,265.259 L289.524,265.301 L289.937,265.5 L290.107,265.076 L290.001,265.034 L289.831,265.458 L289.831,265.915 L289.831,265.458" fill="#2CAB6A"/>
    <path d="M129.743,321.448 C127.647,315.683 125.693,291.727 125.019,286.657 C124.659,283.922 126.987,275.822 129.561,267.666 C126.987,268.214 124.54,268.89 122.136,269.22 C121.348,275.436 121.081,282.375 119.759,291.425 C117.214,308.7 120.94,315.085 124.421,321.062 C124.589,321.35 124.709,321.673 124.828,321.989 C126.628,321.989 128.084,321.989 129.603,321.989 C129.645,321.807 129.687,321.603 129.743,321.448 z" fill="url(#Gradient_29)"/>
    <path d="M124.828,321.989 C127.058,328.24 119.394,339.842 120.813,350.522 C120.659,350.86 120.581,351.028 120.434,351.38 C122.269,351.605 124.14,351.802 126.045,352.006 C127.269,341.389 128.379,326.764 129.603,321.989 C128.084,321.989 126.628,321.989 124.828,321.989 z" fill="url(#Gradient_30)"/>
    <path d="M256.165,314.698 C260.131,321.884 275.923,320.295 292.503,313.165 C312.443,304.594 334.366,299.061 354.905,290.841 C351.909,289.456 349.006,288.134 346.249,286.903 L346.024,286.714 C338.171,291.249 322.969,300.432 311.874,300.924 C299.436,301.472 282.659,317.672 272.97,313.383 C263.273,309.087 257.585,310.416 249.914,294.68 C242.229,278.944 239.993,271.892 245.702,263.412 C247.559,260.663 251.792,257.921 256.636,255.39 C254.126,254.925 251.792,254.524 249.569,254.208 C241.976,258.743 233.687,266.569 235.472,280.252 C238.433,302.921 256.165,314.698 256.165,314.698 z" fill="url(#Gradient_31)"/>
    <path d="M284.262,298.885 C289.796,295.896 309.012,286.58 321.092,279.964 C322.737,279.063 324.199,278.227 325.507,277.439 C318.49,274.317 320.558,275.815 318.343,275.225 C311.312,280.892 308.414,283.803 299.386,286.89 C289.845,290.159 284.36,288.802 285.795,277.222 C286.351,272.827 288.045,268.805 289.937,265.5 L289.831,265.458 L289.957,265.458 L289.999,265.402 C287.011,263.785 285.527,262.962 282.554,261.331 C277.843,267.54 277.667,277.425 277.667,277.425 C285.612,290.194 278.714,301.873 284.262,298.885 z" fill="url(#Gradient_32)"/>
    <path d="M290.126,265.479 L289.999,265.402 L289.957,265.458 L290.126,265.479 z" fill="url(#Gradient_33)"/>
    <path d="M380.478,302.625 C380.21,302.394 379.915,302.161 379.641,301.922 C379.521,302.007 379.409,302.084 379.296,302.161 C374.402,305.466 362.801,317.433 347.937,326.77 C330.556,337.697 309.631,345.825 305.285,350.079 C304.617,350.002 303.921,349.988 303.211,349.995 C305.412,351.605 310.741,350.248 313.118,355.022 C313.237,354.931 313.357,354.853 313.491,354.769 C336.462,339.849 365.487,326.981 384.19,305.649 C384.457,305.353 384.703,305.037 384.964,304.728 C383.473,304.024 381.976,303.321 380.478,302.625 z" fill="url(#Gradient_34)"/>
    <path d="M212.881,330.94 C212.121,330.3 211.706,329.899 211.706,329.899 C211.706,329.899 202.565,318.073 199.831,299.764 C197.103,281.447 203.178,276.392 216.186,262.829 C219.574,259.306 222.886,256.332 225.944,253.829 C224.18,253.856 222.718,253.674 221.417,253.399 C221.339,253.456 221.262,253.519 221.171,253.575 C206.109,263.454 190.647,279.232 191.646,297.802 C192.343,310.613 198.48,322.383 203.6,328.058 C206.693,327.46 209.78,330.567 212.881,330.94 z" fill="url(#Gradient_35)"/>
    <path d="M303.211,349.995 C291.609,350.171 274.242,360.584 263.407,357.624 C246.026,358.151 233.608,344.229 225.284,339.54 C219.265,336.157 214.863,332.635 212.881,330.94 C209.78,330.567 206.693,327.46 203.6,328.058 C204.232,328.753 204.851,329.372 205.441,329.878 C217.55,345.748 240.78,357.701 258.999,363.291 C270.516,366.813 279.256,363.221 288.938,361.8 C307.515,359.065 305.124,360.211 313.118,355.022 C310.741,350.248 305.412,351.605 303.211,349.995 z" fill="url(#Gradient_36)"/>
    <path d="M167.866,293.442 C167.866,293.442 170.876,265.24 174.258,258.61 L174.279,258.54 C172.233,258.919 170.201,259.306 168.218,259.692 C168.232,259.791 168.246,259.875 168.253,259.974 C164.042,273.839 162.038,288.352 160.526,301.964 C159.007,315.556 161.623,325.435 161.623,325.435 C161.623,325.435 161.693,325.885 161.854,326.687 C163.929,326.511 165.561,324.549 167.522,323.902 C166.517,317.349 165.293,305.782 167.866,293.442 z" fill="url(#Gradient_37)"/>
    <path d="M182.928,359.107 C171.678,342.661 168.437,329.471 167.796,325.639 C167.712,325.111 167.62,324.52 167.522,323.902 C165.561,324.549 163.929,326.511 161.854,326.687 C162.769,331.397 166.784,348.441 178.357,358.622 C179.975,359.044 181.711,359.522 183.532,360.021 C183.335,359.719 183.139,359.41 182.928,359.107 z" fill="url(#Gradient_38)"/>
    <path d="M382.354,414.408 C382.214,414.415 382.073,414.436 381.933,414.45 C373.686,419.161 362.069,422.037 352.05,424.28 C353.667,425.693 355.306,427.163 356.944,428.674 C368.103,426.038 381.448,427.338 392.6,422.381 C387.199,422.368 386.342,416.299 382.354,414.408 z" fill="url(#Gradient_39)"/>
    <path d="M484.863,396.162 C466.772,408.396 462.462,404.986 446.515,406.118 C425.927,407.581 403.863,412.454 382.354,414.408 C386.342,416.299 387.199,422.368 392.6,422.381 L392.712,422.339 C412.667,421.2 432.741,420.11 452.618,419.246 C465.316,418.69 476.089,406.399 488.104,404.529 C486.452,401.618 486.606,399.263 484.863,396.162 z" fill="url(#Gradient_40)"/>
    <path d="M397.929,372.228 C414.495,367.214 436.544,361.407 449.2,348.145 C449.608,348.097 450.017,347.991 450.445,347.851 C448.055,345.432 445.629,343.153 442.985,340.826 C427.938,352.702 409.066,359.529 390.827,363.748 C373.967,367.644 352.444,367.439 339.07,374.358 C341.44,375.807 343.071,377.431 344.52,379.807 L344.772,379.681 C362.449,377.227 381.209,377.283 397.929,372.228 z" fill="url(#Gradient_41)"/>
    <path d="M339.07,374.358 C338.62,374.583 338.163,374.808 337.741,375.04 C334.324,377.016 315.087,386.888 299.104,392.682 C302.558,393.891 304.217,395.128 307.493,396.331 C307.901,395.951 311.269,393.722 311.811,393.49 C326.126,387.872 336.855,383.717 344.52,379.807 C343.071,377.431 341.44,375.807 339.07,374.358 z" fill="url(#Gradient_42)"/>
  </g>
</svg>
